<?xml version="1.0" encoding="UTF-8"?>
<svg width="566px" height="36px" viewBox="0 0 566 36" version="1.1" xmlns="http://www.w3.org/2000/svg" xmlns:xlink="http://www.w3.org/1999/xlink">
    <title>Group</title>
    <g id="Page-1" stroke="none" stroke-width="1" fill="none" fill-rule="evenodd">
        <g id="logo_header" transform="translate(-71.000000, -16.000000)" fill-rule="nonzero">
            <g id="Group" transform="translate(71.000000, 16.000000)">
                <g id="icon-custom/GouvFr/BlocMarqueCompact">
                    <g id="RepFr" transform="translate(97.714286, 0.000000)" fill="#000000">
                        <path d="M2.56952381,13.0285714 L2.56952381,7.90761905 L3.89047619,7.90761905 L7.25619048,13.0285714 L10.332381,13.0285714 L6.35142857,7.41904762 C6.99079365,7.11746032 7.4884127,6.68619048 7.84428571,6.1252381 C8.20015873,5.56428571 8.37809524,4.90380952 8.37809524,4.14380952 C8.37809524,2.97365079 7.97396825,2.05079365 7.16571429,1.3752381 C6.35746032,0.69968254 5.25968254,0.361904762 3.87238095,0.361904762 L3.87238095,0.361904762 L-2.571488e-13,0.361904762 L-2.571488e-13,13.0285714 L2.56952381,13.0285714 Z M4.01714286,5.71809524 L2.56952381,5.71809524 L2.56952381,2.55142857 L4.01714286,2.55142857 C4.56,2.55142857 4.98222222,2.69015873 5.28380952,2.96761905 C5.58539683,3.24507937 5.73619048,3.62507937 5.73619048,4.10761905 C5.73619048,4.62634921 5.58539683,5.02444444 5.28380952,5.30190476 C4.98222222,5.57936508 4.56,5.71809524 4.01714286,5.71809524 L4.01714286,5.71809524 Z M19.4885714,13.0285714 L19.4885714,10.8390476 L14.6752381,10.8390476 L14.6752381,7.67238095 L18.7647619,7.67238095 L18.7647619,5.48285714 L14.6752381,5.48285714 L14.6752381,2.55142857 L19.4885714,2.55142857 L19.4885714,0.361904762 L12.1057143,0.361904762 L12.1057143,13.0285714 L19.4885714,13.0285714 Z M25.2247619,13.0285714 L25.2247619,7.90761905 L26.8352381,7.90761905 C28.2225397,7.90761905 29.3173016,7.56984127 30.1195238,6.89428571 C30.921746,6.21873016 31.3228571,5.30190476 31.3228571,4.14380952 C31.3228571,2.97365079 30.921746,2.05079365 30.1195238,1.3752381 C29.3173016,0.69968254 28.2225397,0.361904762 26.8352381,0.361904762 L26.8352381,0.361904762 L22.6552381,0.361904762 L22.6552381,13.0285714 L25.2247619,13.0285714 Z M26.9438095,5.71809524 L25.2247619,5.71809524 L25.2247619,2.55142857 L26.9438095,2.55142857 C27.4866667,2.55142857 27.9119048,2.69015873 28.2195238,2.96761905 C28.5271429,3.24507937 28.6809524,3.62507937 28.6809524,4.10761905 C28.6809524,4.62634921 28.5271429,5.02444444 28.2195238,5.30190476 C27.9119048,5.57936508 27.4866667,5.71809524 26.9438095,5.71809524 L26.9438095,5.71809524 Z M38.38,13.3904762 C39.9603175,13.3904762 41.2119048,12.9169841 42.1347619,11.97 C43.057619,11.0230159 43.5190476,9.7231746 43.5190476,8.07047619 L43.5190476,8.07047619 L43.5190476,0.361904762 L40.9495238,0.361904762 L40.9495238,8.28761905 C40.9495238,9.13206349 40.7203175,9.79253968 40.2619048,10.2690476 C39.8034921,10.7455556 39.1822222,10.9838095 38.3980952,10.9838095 C37.6019048,10.9838095 36.9746032,10.7455556 36.5161905,10.2690476 C36.0577778,9.79253968 35.8285714,9.13206349 35.8285714,8.28761905 L35.8285714,8.28761905 L35.8285714,0.361904762 L33.2590476,0.361904762 L33.2590476,8.07047619 C33.2590476,9.7231746 33.7174603,11.0230159 34.6342857,11.97 C35.5511111,12.9169841 36.7996825,13.3904762 38.38,13.3904762 Z M50.7571429,13.0285714 C52.2047619,13.0285714 53.3507937,12.6968254 54.1952381,12.0333333 C55.0396825,11.3698413 55.4619048,10.4590476 55.4619048,9.30095238 C55.4619048,8.64952381 55.2809524,8.06142857 54.9190476,7.53666667 C54.5571429,7.01190476 54.0444444,6.59873016 53.3809524,6.29714286 C53.8152381,5.99555556 54.1469841,5.63063492 54.3761905,5.20238095 C54.6053968,4.77412698 54.72,4.30666667 54.72,3.8 C54.72,2.7384127 54.3430159,1.9 53.5890476,1.2847619 C52.8350794,0.66952381 51.8006349,0.361904762 50.4857143,0.361904762 L50.4857143,0.361904762 L46.8847619,0.361904762 L46.8847619,13.0285714 L50.7571429,13.0285714 Z M50.54,5.32 L49.4542857,5.32 L49.4542857,2.55142857 L50.54,2.55142857 C51.0225397,2.55142857 51.3995238,2.67507937 51.6709524,2.92238095 C51.942381,3.16968254 52.0780952,3.50444444 52.0780952,3.92666667 C52.0780952,4.37301587 51.942381,4.7168254 51.6709524,4.95809524 C51.3995238,5.19936508 51.0225397,5.32 50.54,5.32 L50.54,5.32 Z M50.9019048,10.8390476 L49.4542857,10.8390476 L49.4542857,7.52761905 L50.9019048,7.52761905 C51.4930159,7.52761905 51.9604762,7.66936508 52.3042857,7.95285714 C52.6480952,8.23634921 52.82,8.63746032 52.82,9.15619048 C52.82,9.67492063 52.6480952,10.0850794 52.3042857,10.3866667 C51.9604762,10.688254 51.4930159,10.8390476 50.9019048,10.8390476 L50.9019048,10.8390476 Z M65.6495238,13.0285714 L65.6495238,10.6942857 L60.8361905,10.6942857 L60.8361905,0.361904762 L58.2666667,0.361904762 L58.2666667,13.0285714 L65.6495238,13.0285714 Z M70.6619048,13.0285714 L70.6619048,0.361904762 L68.092381,0.361904762 L68.092381,13.0285714 L70.6619048,13.0285714 Z M87.2371429,16.1771429 C87.5146032,16.1771429 87.755873,16.1590476 87.9609524,16.1228571 C88.1660317,16.0866667 88.3711111,16.0263492 88.5761905,15.9419048 L88.5761905,15.9419048 L88.5761905,13.7704762 C88.4434921,13.8187302 88.2926984,13.8549206 88.1238095,13.8790476 C87.9549206,13.9031746 87.804127,13.9152381 87.6714286,13.9152381 C87.2612698,13.9152381 86.8360317,13.8247619 86.3957143,13.6438095 C85.9553968,13.4628571 85.4939683,13.1492063 85.0114286,12.7028571 L85.0114286,12.7028571 L84.2514286,11.9790476 C85.0234921,11.3638095 85.6326984,10.591746 86.0790476,9.66285714 C86.5253968,8.73396825 86.7485714,7.7447619 86.7485714,6.6952381 C86.7485714,5.79047619 86.5857143,4.93095238 86.26,4.11666667 C85.9342857,3.30238095 85.475873,2.59365079 84.8847619,1.99047619 C84.2936508,1.38730159 83.5849206,0.904761905 82.7585714,0.542857143 C81.9322222,0.180952381 81.0244444,0 80.0352381,0 C79.0460317,0 78.1352381,0.180952381 77.3028571,0.542857143 C76.4704762,0.904761905 75.7587302,1.38730159 75.167619,1.99047619 C74.5765079,2.59365079 74.1180952,3.30238095 73.792381,4.11666667 C73.4666667,4.93095238 73.3038095,5.79047619 73.3038095,6.6952381 C73.3038095,7.6 73.4666667,8.45952381 73.792381,9.27380952 C74.1180952,10.0880952 74.5765079,10.7968254 75.167619,11.4 C75.7587302,12.0031746 76.4704762,12.4857143 77.3028571,12.847619 C78.1352381,13.2095238 79.0460317,13.3904762 80.0352381,13.3904762 C80.3368254,13.3904762 80.6353968,13.372381 80.9309524,13.3361905 C81.2265079,13.3 81.5069841,13.2457143 81.772381,13.1733333 L81.772381,13.1733333 L83.2742857,14.512381 C83.8895238,15.0552381 84.5288889,15.4684127 85.192381,15.7519048 C85.855873,16.0353968 86.5374603,16.1771429 87.2371429,16.1771429 Z M80.0352381,10.9838095 C79.444127,10.9838095 78.8952381,10.8722222 78.3885714,10.6490476 C77.8819048,10.425873 77.4506349,10.1242857 77.0947619,9.74428571 C76.7388889,9.36428571 76.4584127,8.91190476 76.2533333,8.38714286 C76.048254,7.86238095 75.9457143,7.2984127 75.9457143,6.6952381 C75.9457143,6.09206349 76.048254,5.52809524 76.2533333,5.00333333 C76.4584127,4.47857143 76.7388889,4.02619048 77.0947619,3.64619048 C77.4506349,3.26619048 77.8819048,2.96460317 78.3885714,2.74142857 C78.8952381,2.51825397 79.444127,2.40666667 80.0352381,2.40666667 C80.6263492,2.40666667 81.1722222,2.51825397 81.6728571,2.74142857 C82.1734921,2.96460317 82.601746,3.26619048 82.957619,3.64619048 C83.3134921,4.02619048 83.5939683,4.47857143 83.7990476,5.00333333 C84.004127,5.52809524 84.1066667,6.09206349 84.1066667,6.6952381 C84.1066667,7.2984127 84.004127,7.86238095 83.7990476,8.38714286 C83.5939683,8.91190476 83.3134921,9.36428571 82.957619,9.74428571 C82.601746,10.1242857 82.1734921,10.425873 81.6728571,10.6490476 C81.1722222,10.8722222 80.6263492,10.9838095 80.0352381,10.9838095 Z M94.1495238,13.3904762 C95.7298413,13.3904762 96.9814286,12.9169841 97.9042857,11.97 C98.8271429,11.0230159 99.2885714,9.7231746 99.2885714,8.07047619 L99.2885714,8.07047619 L99.2885714,0.361904762 L96.7190476,0.361904762 L96.7190476,8.28761905 C96.7190476,9.13206349 96.4898413,9.79253968 96.0314286,10.2690476 C95.5730159,10.7455556 94.951746,10.9838095 94.167619,10.9838095 C93.3714286,10.9838095 92.744127,10.7455556 92.2857143,10.2690476 C91.8273016,9.79253968 91.5980952,9.13206349 91.5980952,8.28761905 L91.5980952,8.28761905 L91.5980952,0.361904762 L89.0285714,0.361904762 L89.0285714,8.07047619 C89.0285714,9.7231746 89.4869841,11.0230159 90.4038095,11.97 C91.3206349,12.9169841 92.5692063,13.3904762 94.1495238,13.3904762 Z M110.037143,13.0285714 L110.037143,10.8390476 L105.22381,10.8390476 L105.22381,7.67238095 L109.313333,7.67238095 L109.313333,5.48285714 L105.22381,5.48285714 L105.22381,2.55142857 L110.037143,2.55142857 L110.037143,0.361904762 L102.654286,0.361904762 L102.654286,13.0285714 L110.037143,13.0285714 Z" id="REPUBLIQUE"></path>
                        <path d="M2.56952381,32.9333333 L2.56952381,27.5771429 L6.65904762,27.5771429 L6.65904762,25.387619 L2.56952381,25.387619 L2.56952381,22.4561905 L7.38285714,22.4561905 L7.38285714,20.2666667 L-2.06057393e-13,20.2666667 L-2.06057393e-13,32.9333333 L2.56952381,32.9333333 Z M12.3952381,32.9333333 L12.3952381,27.812381 L13.7161905,27.812381 L17.0819048,32.9333333 L20.1580952,32.9333333 L16.1771429,27.3238095 C16.8165079,27.0222222 17.314127,26.5909524 17.67,26.03 C18.025873,25.4690476 18.2038095,24.8085714 18.2038095,24.0485714 C18.2038095,22.8784127 17.7996825,21.9555556 16.9914286,21.28 C16.1831746,20.6044444 15.0853968,20.2666667 13.6980952,20.2666667 L13.6980952,20.2666667 L9.82571429,20.2666667 L9.82571429,32.9333333 L12.3952381,32.9333333 Z M13.8428571,25.6228571 L12.3952381,25.6228571 L12.3952381,22.4561905 L13.8428571,22.4561905 C14.3857143,22.4561905 14.8079365,22.5949206 15.1095238,22.872381 C15.4111111,23.1498413 15.5619048,23.5298413 15.5619048,24.012381 C15.5619048,24.5311111 15.4111111,24.9292063 15.1095238,25.2066667 C14.8079365,25.484127 14.3857143,25.6228571 13.8428571,25.6228571 L13.8428571,25.6228571 Z M23.0714286,32.9333333 L24.2838095,29.64 L29.3504762,29.64 L30.5628571,32.9333333 L33.2952381,32.9333333 L28.5,20.2666667 L25.1342857,20.2666667 L20.3390476,32.9333333 L23.0714286,32.9333333 Z M28.5542857,27.4504762 L25.08,27.4504762 L26.8171429,22.6914286 L28.5542857,27.4504762 Z M38,32.9333333 L38,23.8314286 L43.6638095,32.9333333 L46.9571429,32.9333333 L46.9571429,20.2666667 L44.387619,20.2666667 L44.387619,29.332381 L38.7238095,20.2666667 L35.4304762,20.2666667 L35.4304762,32.9333333 L38,32.9333333 Z M55.7514286,35.8466667 L57.3257143,33.2228571 C58.2425397,33.1022222 59.0749206,32.8187302 59.8228571,32.372381 C60.5707937,31.9260317 61.1860317,31.3711111 61.6685714,30.707619 L61.6685714,30.707619 L59.6419048,29.1514286 C59.28,29.6701587 58.8185714,30.0893651 58.257619,30.4090476 C57.6966667,30.7287302 57.0542857,30.8885714 56.3304762,30.8885714 C55.7393651,30.8885714 55.1904762,30.7769841 54.6838095,30.5538095 C54.1771429,30.3306349 53.745873,30.0290476 53.39,29.6490476 C53.034127,29.2690476 52.7536508,28.8166667 52.5485714,28.2919048 C52.3434921,27.7671429 52.2409524,27.2031746 52.2409524,26.6 C52.2409524,25.9968254 52.3434921,25.4328571 52.5485714,24.9080952 C52.7536508,24.3833333 53.034127,23.9309524 53.39,23.5509524 C53.745873,23.1709524 54.1771429,22.8693651 54.6838095,22.6461905 C55.1904762,22.4230159 55.7393651,22.3114286 56.3304762,22.3114286 C57.0542857,22.3114286 57.6966667,22.4712698 58.257619,22.7909524 C58.8185714,23.1106349 59.28,23.5298413 59.6419048,24.0485714 L59.6419048,24.0485714 L61.6685714,22.4742857 C61.0895238,21.7142857 60.3415873,21.0960317 59.4247619,20.6195238 C58.5079365,20.1430159 57.4765079,19.9047619 56.3304762,19.9047619 C55.3412698,19.9047619 54.4304762,20.0857143 53.5980952,20.447619 C52.7657143,20.8095238 52.0539683,21.2920635 51.4628571,21.8952381 C50.871746,22.4984127 50.4133333,23.2071429 50.087619,24.0214286 C49.7619048,24.8357143 49.5990476,25.6952381 49.5990476,26.6 C49.5990476,27.3961905 49.7287302,28.1622222 49.9880952,28.8980952 C50.2474603,29.6339683 50.6153968,30.2944444 51.0919048,30.8795238 C51.5684127,31.4646032 52.1444444,31.9592063 52.82,32.3633333 C53.4955556,32.7674603 54.2434921,33.0419048 55.0638095,33.1866667 L55.0638095,33.1866667 L53.4714286,35.8466667 L55.7514286,35.8466667 Z M65.2152381,32.9333333 L66.427619,29.64 L71.4942857,29.64 L72.7066667,32.9333333 L75.4390476,32.9333333 L70.6438095,20.2666667 L67.2780952,20.2666667 L62.4828571,32.9333333 L65.2152381,32.9333333 Z M70.6980952,27.4504762 L67.2238095,27.4504762 L68.9609524,22.6914286 L70.6980952,27.4504762 Z M80.1438095,32.9333333 L80.1438095,20.2666667 L77.5742857,20.2666667 L77.5742857,32.9333333 L80.1438095,32.9333333 Z M87.4361905,33.2952381 C88.0152381,33.2952381 88.5580952,33.2077778 89.0647619,33.0328571 C89.5714286,32.8579365 90.011746,32.607619 90.3857143,32.2819048 C90.7596825,31.9561905 91.058254,31.5580952 91.2814286,31.087619 C91.5046032,30.6171429 91.6222222,30.0863492 91.6342857,29.4952381 C91.6342857,28.4336508 91.3326984,27.6253968 90.7295238,27.0704762 C90.1263492,26.5155556 89.4628571,26.0661905 88.7390476,25.722381 C88.0152381,25.3785714 87.351746,25.0588889 86.7485714,24.7633333 C86.1453968,24.4677778 85.8438095,24.0365079 85.8438095,23.4695238 C85.8438095,23.0955556 85.9765079,22.7819048 86.2419048,22.5285714 C86.5073016,22.2752381 86.8631746,22.1485714 87.3095238,22.1485714 C87.7920635,22.1485714 88.2414286,22.2903175 88.657619,22.5738095 C89.0738095,22.8573016 89.4688889,23.2403175 89.8428571,23.7228571 L89.8428571,23.7228571 L91.7247619,22.04 C91.1939683,21.4006349 90.557619,20.8849206 89.8157143,20.4928571 C89.0738095,20.1007937 88.232381,19.9047619 87.2914286,19.9047619 C86.688254,19.9047619 86.1393651,20.0012698 85.6447619,20.1942857 C85.1501587,20.3873016 84.7249206,20.6496825 84.3690476,20.9814286 C84.0131746,21.3131746 83.7357143,21.7052381 83.5366667,22.157619 C83.337619,22.61 83.2380952,23.0834921 83.2380952,23.5780952 C83.2380952,24.627619 83.5396825,25.4238095 84.1428571,25.9666667 C84.7460317,26.5095238 85.4095238,26.9528571 86.1333333,27.2966667 C86.8571429,27.6404762 87.5206349,27.9601587 88.1238095,28.2557143 C88.7269841,28.5512698 89.0285714,28.9825397 89.0285714,29.5495238 C89.0285714,30.0079365 88.8838095,30.3668254 88.5942857,30.6261905 C88.3047619,30.8855556 87.9066667,31.0152381 87.4,31.0152381 C86.8812698,31.0152381 86.377619,30.8765079 85.8890476,30.5990476 C85.4004762,30.3215873 84.9692063,29.9415873 84.5952381,29.4590476 L84.5952381,29.4590476 L82.7314286,31.1780952 C83.2863492,31.8415873 83.9438095,32.3603175 84.7038095,32.7342857 C85.4638095,33.108254 86.3746032,33.2952381 87.4361905,33.2952381 Z M101.894286,32.9333333 L101.894286,30.7438095 L97.0809524,30.7438095 L97.0809524,27.5771429 L101.170476,27.5771429 L101.170476,25.387619 L97.0809524,25.387619 L97.0809524,22.4561905 L101.894286,22.4561905 L101.894286,20.2666667 L94.5114286,20.2666667 L94.5114286,32.9333333 L101.894286,32.9333333 Z" id="FRANÇAISE"></path>
                    </g>
                    <g id="icon-custom/GouvFr/Marianne" transform="translate(0.000000, 0.361905)">
                        <rect id="Rectangle" fill="#FFFFFF" x="0" y="0" width="90.978836" height="32.752381"></rect>
                        <path d="M37.3780519,28.9312698 C37.8165041,28.4945714 38.0357302,28.2762222 38.4741824,27.8395238 L38.4741824,27.8395238 C39.1318608,27.0753016 39.7895391,26.3110794 40.5568305,25.6560317 C40.7760566,25.4376825 40.9952827,25.2193333 41.2145088,25.1101587 C41.2145088,25.1101587 41.2145088,25.0009841 41.3241219,24.8918095 C41.1048958,25.0009841 40.7760566,25.3285079 40.5568305,25.4376825 C40.5568305,25.4376825 40.4472174,25.4376825 40.5568305,25.3285079 C40.7760566,25.2193333 40.9952827,25.1101587 41.2145088,24.7826349 L41.2145088,24.7826349 C41.2145088,24.7826349 41.2145088,24.7826349 41.2145088,24.6734603 C40.4472174,24.5642857 39.6799261,25.1101587 39.1318608,25.6560317 C39.0222477,25.6560317 38.9126347,25.6560317 38.9126347,25.6560317 C37.9261172,25.874381 37.2684388,26.7477778 36.3915344,27.1844762 L36.3915344,27.0753016 C35.9530822,27.1844762 35.7338561,27.512 35.2954038,27.512 C34.7473386,27.6211746 34.1992733,27.512 33.7608211,27.512 C32.9935297,27.6211746 32.2262383,27.7303492 31.4589469,27.9486984 L31.4589469,27.9486984 C31.0204947,28.057873 30.6916555,28.1670476 30.2532033,28.3853968 L30.2532033,28.3853968 C30.2532033,28.3853968 30.2532033,28.4945714 30.1435902,28.4945714 C30.0339772,28.603746 29.9243641,28.7129206 29.705138,28.9312698 C29.2666858,29.0404444 29.0474597,29.4771429 28.6090075,29.6954921 C28.6090075,29.6954921 28.6090075,29.6954921 28.4993944,29.6954921 C28.2801683,29.9138413 27.8417161,30.3505397 27.5128769,30.6780635 L27.4032638,30.6780635 L27.4032638,30.6780635 L27.4032638,30.6780635 C27.4032638,30.5688889 27.5128769,30.5688889 27.5128769,30.4597143 C27.5128769,30.3505397 27.62249,30.3505397 27.62249,30.2413651 C27.732103,30.1321905 27.732103,30.0230159 27.8417161,29.8046667 C27.8417161,29.8046667 27.8417161,29.8046667 27.8417161,29.6954921 C27.8417161,29.6954921 27.8417161,29.6954921 27.732103,29.6954921 C27.9513291,29.4771429 28.3897813,29.149619 28.8282336,28.9312698 L28.8282336,28.9312698 L28.7186205,28.9312698 L28.8282336,28.8220952 L28.8282336,28.8220952 L28.8282336,28.8220952 C28.7186205,28.8220952 28.6090075,28.9312698 28.6090075,29.0404444 C28.4993944,29.149619 28.3897813,29.4771429 28.0609422,29.4771429 C28.0609422,29.4771429 28.0609422,29.4771429 27.9513291,29.4771429 L27.9513291,29.4771429 L27.9513291,29.4771429 L27.9513291,29.4771429 L27.9513291,29.4771429 L27.9513291,29.4771429 L27.9513291,29.4771429 L27.9513291,29.4771429 C27.9513291,29.4771429 27.9513291,29.4771429 27.9513291,29.3679683 L27.9513291,29.3679683 C27.9513291,29.3679683 27.9513291,29.2587937 28.0609422,29.2587937 L28.0609422,29.2587937 L28.0609422,28.7129206 L28.0609422,28.603746 C28.1705552,28.4945714 28.2801683,28.3853968 28.4993944,28.1670476 L28.4993944,28.1670476 C28.7186205,28.057873 29.0474597,27.9486984 29.1570727,27.7303492 C29.1570727,27.7303492 29.2666858,27.7303492 29.2666858,27.6211746 C28.8282336,27.7303492 28.6090075,27.8395238 28.2801683,28.1670476 L28.1705552,28.1670476 L28.0609422,28.1670476 L28.0609422,28.1670476 C28.0609422,28.057873 28.2801683,28.057873 28.4993944,27.9486984 L28.6090075,27.9486984 C30.6916555,26.420254 33.3223688,26.7477778 35.624243,25.874381 C35.7338561,25.7652063 36.0626952,25.6560317 36.1723083,25.4376825 C36.3915344,25.3285079 36.7203736,25.0009841 37.1588258,24.7826349 C37.7068911,24.3459365 37.9261172,24.0184127 38.2549563,23.2541905 L38.2549563,23.1450159 C37.4876649,23.9092381 36.5011474,24.6734603 35.5146299,25.2193333 C34.1992733,25.874381 32.7743036,25.7652063 31.4589469,25.9835556 C31.4589469,25.874381 31.56856,25.874381 31.678173,25.874381 C31.678173,25.7652063 31.7877861,25.6560317 31.8973991,25.4376825 L32.1166252,25.4376825 C32.1166252,25.4376825 32.1166252,25.3285079 32.2262383,25.3285079 C32.3358513,25.3285079 32.4454644,25.3285079 32.4454644,25.3285079 C32.3358513,25.1101587 31.8973991,25.4376825 31.678173,25.3285079 C31.7877861,25.2193333 31.678173,25.1101587 31.7877861,24.8918095 L32.1166252,24.8918095 C32.1166252,24.7826349 32.2262383,24.6734603 32.2262383,24.6734603 C33.2127558,24.1275873 33.9800472,23.6908889 34.9665647,23.1450159 C34.8569516,23.1450159 34.7473386,23.2541905 34.4184994,23.1450159 C34.5281124,23.1450159 34.4184994,23.0358413 34.5281124,23.0358413 C35.1857908,22.9266667 35.7338561,22.4899683 36.3915344,22.271619 C36.1723083,22.271619 35.9530822,22.3807937 35.7338561,22.271619 C35.8434691,22.271619 35.8434691,22.1624444 36.1723083,22.1624444 L36.1723083,22.0532698 C36.1723083,22.0532698 36.1723083,22.0532698 36.2819213,22.0532698 L36.1723083,22.0532698 C36.1723083,21.9440952 36.3915344,22.0532698 36.6107605,21.9440952 L36.5011474,21.9440952 C36.6107605,21.725746 37.0492127,21.725746 37.2684388,21.5073968 C37.2684388,21.3982222 37.0492127,21.5073968 37.0492127,21.3982222 C37.0492127,21.3982222 37.0492127,21.3982222 37.1588258,21.3982222 L37.0492127,21.3982222 C36.9395997,21.3982222 37.0492127,21.2890476 37.0492127,21.179873 C37.4876649,20.7431746 37.4876649,20.1973016 37.597278,19.6514286 L37.4876649,19.6514286 C36.8299866,20.3064762 35.8434691,20.634 34.9665647,20.8523492 L34.7473386,20.8523492 C34.5281124,20.9615238 33.9800472,20.9615238 33.651208,20.8523492 C33.4319819,20.7431746 33.2127558,20.634 32.9935297,20.3064762 C32.4454644,20.088127 32.0070122,19.7606032 31.4589469,19.542254 C29.9243641,18.996381 28.3897813,18.7780317 26.7455855,18.8872063 C27.4032638,18.4505079 28.2801683,18.4505079 28.9378466,18.2321587 C30.0339772,18.0138095 31.0204947,17.5771111 32.0070122,17.5771111 C31.8973991,17.5771111 31.56856,17.5771111 31.3493338,17.5771111 C30.5820425,17.5771111 29.595525,17.6862857 28.6090075,18.0138095 C27.9513291,18.1229841 27.4032638,18.4505079 26.8551986,18.5596825 C26.4167464,18.6688571 26.3071333,19.1055556 25.8686811,18.996381 L25.8686811,18.8872063 C26.5263594,18.1229841 27.1840377,17.3587619 28.1705552,17.3587619 C29.2666858,17.2495873 30.3628163,17.3587619 31.4589469,17.4679365 C32.2262383,17.4679365 32.9935297,17.6862857 33.7608211,17.9046349 C33.9800472,17.9046349 34.1992733,18.4505079 34.4184994,18.4505079 C34.8569516,18.5596825 35.1857908,18.4505079 35.5146299,18.6688571 C35.5146299,18.5596825 35.5146299,18.4505079 35.5146299,18.2321587 C35.7338561,18.0138095 36.0626952,18.2321587 36.2819213,18.2321587 C36.8299866,18.0138095 35.8434691,17.4679365 35.624243,16.9220635 L35.624243,16.8128889 C36.1723083,17.2495873 36.3915344,17.7954603 37.1588258,18.0138095 C37.3780519,18.1229841 38.2549563,18.2321587 38.1453433,18.0138095 C37.9261172,17.3587619 37.1588258,16.8128889 36.6107605,16.1578413 L36.6107605,15.6119683 C36.5011474,15.6119683 36.5011474,15.6119683 36.5011474,15.5027937 L36.5011474,15.2844444 C36.2819213,15.1752698 36.3915344,14.847746 36.2819213,14.7385714 C36.1723083,14.5202222 36.2819213,13.9743492 36.1723083,13.6468254 C36.0626952,13.210127 36.0626952,12.9917778 35.9530822,12.5550794 C35.8434691,11.4633333 35.5146299,10.4807619 35.4050169,9.60736508 C35.2954038,8.40644444 36.0626952,7.42387302 36.6107605,6.55047619 C37.0492127,5.78625397 37.597278,5.02203175 38.3645694,4.47615873 C38.4741824,3.71193651 39.0222477,3.16606349 39.570313,2.40184127 C40.1183783,1.85596825 40.8856697,1.41926984 41.4337349,1.20092063 C42.2010263,0.218349206 42.9683177,7.75732212e-15 42.9683177,7.75732212e-15 L55.1353669,7.75732212e-15 C55.1353669,7.75732212e-15 55.1353669,7.75732212e-15 55.354593,0.109174603 C55.5738191,0.218349206 56.0122713,0.545873016 56.3411105,0.655047619 C56.7795627,0.873396825 57.327628,1.20092063 57.5468541,1.63761905 C57.6564671,1.74679365 57.7660802,2.18349206 57.6564671,2.40184127 C57.5468541,2.62019048 57.5468541,3.16606349 57.1084019,3.3844127 C56.6699496,3.4935873 56.3411105,3.4935873 55.7930452,3.4935873 C55.5738191,3.4935873 55.2449799,3.4935873 55.0257538,3.3844127 C56.0122713,3.82111111 56.7795627,4.14863492 57.437241,5.02203175 C57.437241,5.13120635 57.6564671,5.13120635 57.9853063,5.13120635 L57.9853063,5.24038095 C57.8756932,5.34955556 57.7660802,5.34955556 57.8756932,5.67707937 L58.3141455,5.67707937 C58.5333716,5.56790476 58.5333716,4.91285714 58.9718238,5.13120635 C59.1910499,5.24038095 59.410276,5.78625397 59.1910499,6.11377778 C58.9718238,6.33212698 58.6429846,6.55047619 58.4237585,6.7688254 C58.4237585,6.878 58.4237585,6.9871746 58.4237585,7.20552381 C58.5333716,7.42387302 58.6429846,7.75139683 58.6429846,7.96974603 C58.7525977,8.40644444 58.8622107,8.95231746 59.0814369,9.27984127 C59.5198891,10.2624127 59.7391152,11.1358095 59.6295021,12.118381 C59.6295021,12.664254 59.410276,13.1009524 59.6295021,13.6468254 C59.7391152,14.1926984 60.0679544,14.4110476 60.2871805,14.9569206 C60.5064066,15.393619 60.8352457,15.6119683 60.9448588,15.9394921 C61.383311,16.5945397 62.0409894,17.1404127 61.7121502,18.0138095 C61.6025371,18.4505079 60.9448588,18.4505079 60.3967935,18.6688571 C59.9583413,18.8872063 60.3967935,19.4330794 60.5064066,19.7606032 C60.7256327,20.3064762 60.0679544,20.7431746 59.7391152,20.8523492 C59.8487282,20.9615238 60.1775674,20.9615238 60.1775674,21.0706984 C60.1775674,21.2890476 60.6160196,21.6165714 60.2871805,21.8349206 C60.0679544,22.271619 59.300663,22.3807937 59.6295021,22.9266667 C59.8487282,23.3633651 59.7391152,23.9092381 59.6295021,24.2367619 C59.5198891,24.7826349 58.9718238,25.0009841 58.5333716,25.2193333 C58.0949194,25.3285079 57.7660802,25.3285079 57.327628,25.2193333 C57.2180149,25.2193333 57.1084019,25.1101587 56.8891758,25.1101587 C55.7930452,25.0009841 54.6969146,24.6734603 53.8200102,24.6734603 C53.6007841,24.6734603 53.1623319,24.7826349 53.0527188,24.8918095 C52.8334927,25.1101587 52.5046535,25.3285079 52.2854274,25.5468571 L52.2854274,25.5468571 L52.1758144,25.6560317 C52.1758144,25.6560317 52.1758144,25.6560317 52.0662013,25.7652063 L52.0662013,25.7652063 C51.9565883,25.9835556 51.6277491,26.2019048 51.518136,26.420254 L51.518136,26.420254 C51.518136,26.420254 51.518136,26.420254 51.518136,26.5294286 C51.2989099,26.966127 51.0796838,27.2936508 51.0796838,27.6211746 C50.6412316,29.149619 50.8604577,30.3505397 51.0796838,30.5688889 C51.1892969,30.6780635 53.1623319,31.2239365 54.4776885,31.8789841 C55.1353669,32.0973333 55.5738191,32.4248571 56.0122713,32.5340317 L30.1435902,32.5340317 C31.3493338,31.7698095 32.4454644,31.3331111 34.1992733,30.4597143 C35.0761777,30.3505397 36.8299866,29.4771429 37.3780519,28.9312698 M27.8417161,24.5642857 C27.732103,24.5642857 27.4032638,24.5642857 27.62249,24.5642857 C27.62249,24.3459365 28.1705552,24.3459365 28.3897813,24.1275873 C28.4993944,24.1275873 28.6090075,24.0184127 28.8282336,24.0184127 C28.9378466,24.1275873 29.0474597,24.1275873 29.2666858,24.2367619 C28.8282336,24.5642857 28.2801683,24.2367619 27.8417161,24.5642857 M18.1957672,23.0358413 L18.1957672,23.0358413 C18.9630586,21.8349206 19.5111239,20.8523492 20.0591891,19.7606032 C20.8264805,19.3239048 21.5937719,18.6688571 22.2514502,18.0138095 C23.3475808,16.9220635 24.4437114,15.8303175 25.759068,15.2844444 C26.3071333,15.1752698 26.8551986,15.1752698 27.4032638,15.2844444 C27.2936508,15.5027937 26.8551986,15.393619 26.6359725,15.7211429 L26.5263594,15.7211429 L26.5263594,15.6119683 C25.8686811,16.2670159 24.9917766,16.5945397 24.4437114,17.3587619 C24.0052591,18.0138095 23.786033,18.8872063 22.9091286,18.996381 C22.6899025,18.996381 22.9091286,18.8872063 22.9091286,18.8872063 C21.2649327,20.088127 19.839963,21.3982222 18.1957672,23.0358413 M23.5668069,18.996381 C23.5668069,19.1055556 23.4571939,19.1055556 23.4571939,19.2147302 C23.4571939,19.3239048 23.3475808,19.3239048 23.2379677,19.4330794 L23.1283547,19.4330794 C23.0187416,19.2147302 23.1283547,18.996381 23.5668069,18.996381 C23.5668069,18.8872063 23.5668069,18.996381 23.5668069,18.996381 M26.4167464,28.2762222 C26.4167464,28.3853968 26.3071333,28.3853968 26.3071333,28.3853968 C26.4167464,28.3853968 26.4167464,28.3853968 26.4167464,28.4945714 C26.3071333,28.603746 26.1975202,28.7129206 25.9782941,28.7129206 C25.9782941,28.7129206 25.9782941,28.7129206 25.8686811,28.7129206 C25.759068,28.8220952 25.759068,28.8220952 25.649455,28.9312698 C25.5398419,28.9312698 25.2110027,28.9312698 25.4302289,28.8220952 C25.5398419,28.7129206 25.649455,28.603746 25.8686811,28.3853968 C25.9782941,28.2762222 25.9782941,28.2762222 26.0879072,28.1670476 L26.1975202,28.057873 C26.0879072,28.1670476 26.4167464,28.1670476 26.4167464,28.2762222 M25.3206158,27.7303492 L25.3206158,27.7303492 C25.1013897,27.8395238 24.7725505,28.1670476 24.6629375,28.2762222 C24.4437114,28.3853968 24.1148722,28.4945714 23.8956461,28.7129206 L23.8956461,28.7129206 C23.8956461,28.7129206 23.8956461,28.7129206 23.786033,28.7129206 C23.5668069,28.8220952 23.3475808,28.9312698 23.1283547,29.2587937 C23.1283547,29.2587937 23.1283547,29.2587937 23.0187416,29.3679683 L23.0187416,29.3679683 L23.0187416,29.3679683 C23.0187416,29.3679683 23.0187416,29.3679683 22.9091286,29.4771429 L22.9091286,29.4771429 L22.9091286,29.4771429 L22.7995155,29.5863175 C22.7995155,29.5863175 22.7995155,29.5863175 22.6899025,29.6954921 L22.5802894,29.6954921 L22.5802894,29.6954921 L22.4706764,29.6954921 C22.4706764,29.6954921 22.4706764,29.6954921 22.3610633,29.6954921 L22.3610633,29.6954921 L22.3610633,29.6954921 C22.2514502,29.6954921 22.2514502,29.8046667 22.1418372,29.8046667 C22.0322241,29.9138413 21.9226111,30.0230159 21.703385,30.2413651 L21.703385,30.2413651 L21.703385,30.2413651 L21.703385,30.2413651 L21.703385,30.2413651 L21.703385,30.2413651 L21.703385,30.2413651 L21.703385,30.2413651 L21.703385,30.2413651 L21.703385,30.2413651 L21.703385,30.2413651 C21.703385,30.2413651 21.703385,30.2413651 21.703385,30.1321905 L21.703385,30.1321905 L21.703385,30.1321905 C21.703385,30.0230159 21.812998,30.0230159 21.812998,29.9138413 L21.812998,29.9138413 C21.812998,29.9138413 21.812998,29.9138413 21.812998,29.8046667 L21.9226111,29.6954921 L21.9226111,29.6954921 C22.0322241,29.5863175 22.0322241,29.5863175 22.0322241,29.4771429 L22.0322241,29.4771429 L22.0322241,29.4771429 C22.0322241,29.4771429 22.0322241,29.3679683 22.1418372,29.3679683 C22.1418372,29.3679683 22.1418372,29.2587937 22.2514502,29.2587937 L22.2514502,29.2587937 L22.2514502,29.2587937 L22.2514502,29.2587937 L22.2514502,29.149619 L22.2514502,29.149619 L22.2514502,29.149619 C22.2514502,29.149619 22.2514502,29.149619 22.2514502,29.0404444 L22.2514502,29.0404444 C22.2514502,29.0404444 22.2514502,29.0404444 22.2514502,28.9312698 L22.2514502,28.9312698 C22.3610633,28.8220952 22.3610633,28.7129206 22.4706764,28.7129206 L22.4706764,28.7129206 C22.3610633,28.7129206 22.3610633,28.8220952 22.2514502,28.8220952 C22.2514502,28.8220952 22.1418372,28.8220952 22.1418372,28.7129206 L22.2514502,28.603746 L22.2514502,28.603746 C22.3610633,28.4945714 22.3610633,28.3853968 22.4706764,28.3853968 C22.5802894,28.3853968 22.5802894,28.2762222 22.5802894,28.2762222 L22.5802894,28.2762222 L22.6899025,28.1670476 L22.6899025,28.1670476 C23.2379677,27.6211746 24.3340983,27.6211746 25.1013897,27.1844762 C25.3206158,27.0753016 25.759068,27.1844762 26.0879072,27.1844762 C26.1975202,27.1844762 26.5263594,27.1844762 26.6359725,27.2936508 C26.1975202,27.0753016 25.649455,27.512 25.3206158,27.7303492 M26.5263594,23.4725397 C26.5263594,23.4725397 26.6359725,23.4725397 26.7455855,23.3633651 L26.1975202,23.3633651 C26.1975202,23.3633651 26.1975202,23.3633651 26.1975202,23.2541905 C25.9782941,23.2541905 25.5398419,23.3633651 25.2110027,23.4725397 C24.7725505,23.5817143 24.4437114,23.9092381 23.8956461,24.0184127 C23.2379677,24.2367619 22.6899025,24.7826349 21.812998,25.1101587 C21.812998,25.1101587 21.812998,25.1101587 21.812998,25.0009841 C21.812998,24.8918095 22.0322241,24.7826349 22.2514502,24.5642857 L22.2514502,24.3459365 C22.7995155,23.6908889 23.4571939,23.2541905 24.0052591,22.7083175 L24.0052591,22.5991429 C24.1148722,22.3807937 24.5533244,22.1624444 24.6629375,21.9440952 C24.6629375,21.8349206 24.8821636,21.5073968 25.3206158,21.3982222 C25.3206158,21.3982222 25.2110027,21.3982222 25.2110027,21.2890476 C24.9917766,21.2890476 24.6629375,21.3982222 24.4437114,21.2890476 C24.5533244,21.179873 24.6629375,21.179873 24.8821636,21.0706984 C24.8821636,21.0706984 24.7725505,21.0706984 24.7725505,20.9615238 C24.7725505,20.8523492 24.8821636,20.7431746 24.9917766,20.7431746 C25.2110027,20.7431746 25.5398419,20.7431746 25.759068,20.5248254 C25.3206158,20.5248254 24.7725505,20.634 24.4437114,20.4156508 C24.6629375,19.6514286 25.2110027,18.8872063 26.0879072,18.5596825 L26.1975202,18.5596825 C26.1975202,18.7780317 26.0879072,19.1055556 25.649455,19.2147302 C26.1975202,19.3239048 26.6359725,19.3239048 27.1840377,19.6514286 C27.1840377,19.7606032 27.0744247,19.6514286 26.9648116,19.6514286 C27.1840377,19.7606032 27.62249,19.6514286 27.9513291,19.8697778 C27.8417161,19.9789524 27.5128769,19.8697778 27.4032638,19.8697778 C29.2666858,20.4156508 31.3493338,20.8523492 32.9935297,22.1624444 C31.678173,22.8174921 30.1435902,23.1450159 28.6090075,23.4725397 C28.4993944,23.4725397 28.3897813,23.4725397 28.0609422,23.4725397 L28.0609422,23.5817143 C27.8417161,23.5817143 27.62249,23.5817143 27.4032638,23.6908889 C27.0744247,23.5817143 26.7455855,23.6908889 26.5263594,23.4725397" id="Fond_2_" fill="#FFFFFF"></path>
                        <path d="M37.3780519,28.9312698 C37.8165041,28.4945714 38.0357302,28.2762222 38.4741824,27.8395238 L38.4741824,27.8395238 C39.1318608,27.0753016 39.7895391,26.3110794 40.5568305,25.6560317 C40.7760566,25.4376825 40.9952827,25.2193333 41.2145088,25.1101587 C41.2145088,25.1101587 41.2145088,25.0009841 41.3241219,24.8918095 C41.1048958,25.0009841 40.7760566,25.3285079 40.5568305,25.4376825 C40.5568305,25.4376825 40.4472174,25.4376825 40.5568305,25.3285079 C40.7760566,25.2193333 40.9952827,25.1101587 41.2145088,24.7826349 L41.2145088,24.7826349 C41.2145088,24.7826349 41.2145088,24.7826349 41.2145088,24.6734603 C40.4472174,24.5642857 39.6799261,25.1101587 39.1318608,25.6560317 C39.0222477,25.6560317 38.9126347,25.6560317 38.9126347,25.6560317 C37.9261172,25.874381 37.2684388,26.7477778 36.3915344,27.1844762 L36.3915344,27.0753016 C35.9530822,27.1844762 35.7338561,27.512 35.2954038,27.512 C34.7473386,27.6211746 34.1992733,27.512 33.7608211,27.512 C32.9935297,27.6211746 32.2262383,27.7303492 31.4589469,27.9486984 L31.4589469,27.9486984 C31.0204947,28.057873 30.6916555,28.1670476 30.2532033,28.3853968 L30.2532033,28.3853968 C30.2532033,28.3853968 30.2532033,28.4945714 30.1435902,28.4945714 C30.0339772,28.603746 29.9243641,28.7129206 29.705138,28.9312698 C29.2666858,29.0404444 29.0474597,29.4771429 28.6090075,29.6954921 C28.6090075,29.6954921 28.6090075,29.6954921 28.4993944,29.6954921 C28.2801683,29.9138413 27.8417161,30.3505397 27.5128769,30.6780635 L27.4032638,30.6780635 L27.4032638,30.6780635 L27.4032638,30.6780635 C27.4032638,30.5688889 27.5128769,30.5688889 27.5128769,30.4597143 C27.5128769,30.3505397 27.62249,30.3505397 27.62249,30.2413651 C27.732103,30.1321905 27.732103,30.0230159 27.8417161,29.8046667 C27.8417161,29.8046667 27.8417161,29.8046667 27.8417161,29.6954921 C27.8417161,29.6954921 27.8417161,29.6954921 27.732103,29.6954921 C27.9513291,29.4771429 28.3897813,29.149619 28.8282336,28.9312698 L28.8282336,28.9312698 L28.7186205,28.9312698 L28.8282336,28.8220952 L28.8282336,28.8220952 L28.8282336,28.8220952 C28.7186205,28.8220952 28.6090075,28.9312698 28.6090075,29.0404444 C28.4993944,29.149619 28.3897813,29.4771429 28.0609422,29.4771429 C28.0609422,29.4771429 28.0609422,29.4771429 27.9513291,29.4771429 L27.9513291,29.4771429 L27.9513291,29.4771429 L27.9513291,29.4771429 L27.9513291,29.4771429 L27.9513291,29.4771429 L27.9513291,29.4771429 L27.9513291,29.4771429 C27.9513291,29.4771429 27.9513291,29.4771429 27.9513291,29.3679683 L27.9513291,29.3679683 C27.9513291,29.3679683 27.9513291,29.2587937 28.0609422,29.2587937 L28.0609422,29.2587937 L28.0609422,28.7129206 L28.0609422,28.603746 C28.1705552,28.4945714 28.2801683,28.3853968 28.4993944,28.1670476 L28.4993944,28.1670476 C28.7186205,28.057873 29.0474597,27.9486984 29.1570727,27.7303492 C29.1570727,27.7303492 29.2666858,27.7303492 29.2666858,27.6211746 C28.8282336,27.7303492 28.6090075,27.8395238 28.2801683,28.1670476 L28.1705552,28.1670476 L28.0609422,28.1670476 L28.0609422,28.1670476 C28.0609422,28.057873 28.2801683,28.057873 28.4993944,27.9486984 L28.6090075,27.9486984 C30.6916555,26.420254 33.3223688,26.7477778 35.624243,25.874381 C35.7338561,25.7652063 36.0626952,25.6560317 36.1723083,25.4376825 C36.3915344,25.3285079 36.7203736,25.0009841 37.1588258,24.7826349 C37.7068911,24.3459365 37.9261172,24.0184127 38.2549563,23.2541905 L38.2549563,23.1450159 C37.4876649,23.9092381 36.5011474,24.6734603 35.5146299,25.2193333 C34.1992733,25.874381 32.7743036,25.7652063 31.4589469,25.9835556 C31.4589469,25.874381 31.56856,25.874381 31.678173,25.874381 C31.678173,25.7652063 31.7877861,25.6560317 31.8973991,25.4376825 L32.1166252,25.4376825 C32.1166252,25.4376825 32.1166252,25.3285079 32.2262383,25.3285079 C32.3358513,25.3285079 32.4454644,25.3285079 32.4454644,25.3285079 C32.3358513,25.1101587 31.8973991,25.4376825 31.678173,25.3285079 C31.7877861,25.2193333 31.678173,25.1101587 31.7877861,24.8918095 L32.1166252,24.8918095 C32.1166252,24.7826349 32.2262383,24.6734603 32.2262383,24.6734603 C33.2127558,24.1275873 33.9800472,23.6908889 34.9665647,23.1450159 C34.8569516,23.1450159 34.7473386,23.2541905 34.4184994,23.1450159 C34.5281124,23.1450159 34.4184994,23.0358413 34.5281124,23.0358413 C35.1857908,22.9266667 35.7338561,22.4899683 36.3915344,22.271619 C36.1723083,22.271619 35.9530822,22.3807937 35.7338561,22.271619 C35.8434691,22.271619 35.8434691,22.1624444 36.1723083,22.1624444 L36.1723083,22.0532698 C36.1723083,22.0532698 36.1723083,22.0532698 36.2819213,22.0532698 L36.1723083,22.0532698 C36.1723083,21.9440952 36.3915344,22.0532698 36.6107605,21.9440952 L36.5011474,21.9440952 C36.6107605,21.725746 37.0492127,21.725746 37.2684388,21.5073968 C37.2684388,21.3982222 37.0492127,21.5073968 37.0492127,21.3982222 C37.0492127,21.3982222 37.0492127,21.3982222 37.1588258,21.3982222 L37.0492127,21.3982222 C36.9395997,21.3982222 37.0492127,21.2890476 37.0492127,21.179873 C37.4876649,20.7431746 37.4876649,20.1973016 37.597278,19.6514286 L37.4876649,19.6514286 C36.8299866,20.3064762 35.8434691,20.634 34.9665647,20.8523492 L34.7473386,20.8523492 C34.5281124,20.9615238 33.9800472,20.9615238 33.651208,20.8523492 C33.4319819,20.7431746 33.2127558,20.634 32.9935297,20.3064762 C32.4454644,20.088127 32.0070122,19.7606032 31.4589469,19.542254 C29.9243641,18.996381 28.3897813,18.7780317 26.7455855,18.8872063 C27.4032638,18.4505079 28.2801683,18.4505079 28.9378466,18.2321587 C30.0339772,18.0138095 31.0204947,17.5771111 32.0070122,17.5771111 C31.8973991,17.5771111 31.56856,17.5771111 31.3493338,17.5771111 C30.5820425,17.5771111 29.595525,17.6862857 28.6090075,18.0138095 C27.9513291,18.1229841 27.4032638,18.4505079 26.8551986,18.5596825 C26.4167464,18.6688571 26.3071333,19.1055556 25.8686811,18.996381 L25.8686811,18.8872063 C26.5263594,18.1229841 27.1840377,17.3587619 28.1705552,17.3587619 C29.2666858,17.2495873 30.3628163,17.3587619 31.4589469,17.4679365 C32.2262383,17.4679365 32.9935297,17.6862857 33.7608211,17.9046349 C33.9800472,17.9046349 34.1992733,18.4505079 34.4184994,18.4505079 C34.8569516,18.5596825 35.1857908,18.4505079 35.5146299,18.6688571 C35.5146299,18.5596825 35.5146299,18.4505079 35.5146299,18.2321587 C35.7338561,18.0138095 36.0626952,18.2321587 36.2819213,18.2321587 C36.8299866,18.0138095 35.8434691,17.4679365 35.624243,16.9220635 L35.624243,16.8128889 C36.1723083,17.2495873 36.3915344,17.7954603 37.1588258,18.0138095 C37.3780519,18.1229841 38.2549563,18.2321587 38.1453433,18.0138095 C37.9261172,17.3587619 37.1588258,16.8128889 36.6107605,16.1578413 L36.6107605,15.6119683 C36.5011474,15.6119683 36.5011474,15.6119683 36.5011474,15.5027937 L36.5011474,15.2844444 C36.2819213,15.1752698 36.3915344,14.847746 36.2819213,14.7385714 C36.1723083,14.5202222 36.2819213,13.9743492 36.1723083,13.6468254 C36.0626952,13.210127 36.0626952,12.9917778 35.9530822,12.5550794 C35.8434691,11.4633333 35.5146299,10.4807619 35.4050169,9.60736508 C35.2954038,8.40644444 36.0626952,7.42387302 36.6107605,6.55047619 C37.0492127,5.78625397 37.597278,5.02203175 38.3645694,4.47615873 C38.4741824,3.71193651 39.0222477,3.16606349 39.570313,2.40184127 C40.1183783,1.85596825 40.8856697,1.41926984 41.4337349,1.20092063 C42.2010263,0.218349206 42.9683177,7.75732212e-15 42.9683177,7.75732212e-15 L0,7.75732212e-15 L0,32.752381 L30.2532033,32.752381 C31.4589469,31.9881587 32.5550775,31.5514603 34.3088863,30.6780635 C35.0761777,30.3505397 36.8299866,29.4771429 37.3780519,28.9312698 M27.8417161,24.5642857 C27.732103,24.5642857 27.4032638,24.5642857 27.62249,24.5642857 C27.62249,24.3459365 28.1705552,24.3459365 28.3897813,24.1275873 C28.4993944,24.1275873 28.6090075,24.0184127 28.8282336,24.0184127 C28.9378466,24.1275873 29.0474597,24.1275873 29.2666858,24.2367619 C28.8282336,24.5642857 28.2801683,24.2367619 27.8417161,24.5642857 M18.4149933,23.0358413 C18.4149933,23.0358413 18.1957672,23.0358413 18.4149933,23.0358413 C19.1822847,21.8349206 19.73035,20.8523492 20.2784152,19.7606032 C21.0457066,19.3239048 21.812998,18.6688571 22.4706764,18.0138095 C23.5668069,16.9220635 24.6629375,15.8303175 25.9782941,15.2844444 C26.5263594,15.1752698 27.0744247,15.1752698 27.62249,15.2844444 C27.5128769,15.5027937 27.0744247,15.393619 26.8551986,15.7211429 L26.6359725,15.7211429 L26.6359725,15.6119683 C25.9782941,16.2670159 25.1013897,16.5945397 24.5533244,17.3587619 C24.1148722,18.0138095 23.8956461,18.8872063 23.0187416,18.996381 C22.7995155,18.996381 23.0187416,18.8872063 23.0187416,18.8872063 C21.2649327,20.088127 19.839963,21.3982222 18.4149933,23.0358413 M23.5668069,18.996381 C23.5668069,19.1055556 23.4571939,19.1055556 23.4571939,19.2147302 C23.4571939,19.3239048 23.3475808,19.3239048 23.2379677,19.4330794 L23.1283547,19.4330794 C23.0187416,19.2147302 23.1283547,18.996381 23.5668069,18.996381 C23.5668069,18.8872063 23.5668069,18.996381 23.5668069,18.996381 M26.4167464,28.2762222 C26.4167464,28.3853968 26.3071333,28.3853968 26.3071333,28.3853968 C26.4167464,28.3853968 26.4167464,28.3853968 26.4167464,28.4945714 C26.3071333,28.603746 26.1975202,28.7129206 25.9782941,28.7129206 C25.9782941,28.7129206 25.9782941,28.7129206 25.8686811,28.7129206 C25.759068,28.8220952 25.759068,28.8220952 25.649455,28.9312698 C25.5398419,28.9312698 25.2110027,28.9312698 25.4302289,28.8220952 C25.5398419,28.7129206 25.649455,28.603746 25.8686811,28.3853968 C25.9782941,28.2762222 25.9782941,28.2762222 26.0879072,28.1670476 L26.1975202,28.057873 C26.0879072,28.1670476 26.4167464,28.1670476 26.4167464,28.2762222 M25.3206158,27.7303492 L25.3206158,27.7303492 C25.1013897,27.8395238 24.7725505,28.1670476 24.6629375,28.2762222 C24.4437114,28.3853968 24.1148722,28.4945714 23.8956461,28.7129206 L23.8956461,28.7129206 C23.8956461,28.7129206 23.8956461,28.7129206 23.786033,28.7129206 C23.5668069,28.8220952 23.3475808,28.9312698 23.1283547,29.2587937 C23.1283547,29.2587937 23.1283547,29.2587937 23.0187416,29.3679683 L23.0187416,29.3679683 L23.0187416,29.3679683 C23.0187416,29.3679683 23.0187416,29.3679683 22.9091286,29.4771429 L22.9091286,29.4771429 L22.9091286,29.4771429 L22.7995155,29.5863175 C22.7995155,29.5863175 22.7995155,29.5863175 22.6899025,29.6954921 L22.5802894,29.6954921 L22.5802894,29.6954921 L22.4706764,29.6954921 C22.4706764,29.6954921 22.4706764,29.6954921 22.3610633,29.6954921 L22.3610633,29.6954921 L22.3610633,29.6954921 C22.2514502,29.6954921 22.2514502,29.8046667 22.1418372,29.8046667 C22.0322241,29.9138413 21.9226111,30.0230159 21.703385,30.2413651 L21.703385,30.2413651 L21.703385,30.2413651 L21.703385,30.2413651 L21.703385,30.2413651 L21.703385,30.2413651 L21.703385,30.2413651 L21.703385,30.2413651 L21.703385,30.2413651 L21.703385,30.2413651 L21.703385,30.2413651 C21.703385,30.2413651 21.703385,30.2413651 21.703385,30.1321905 L21.703385,30.1321905 L21.703385,30.1321905 C21.703385,30.0230159 21.812998,30.0230159 21.812998,29.9138413 L21.812998,29.9138413 C21.812998,29.9138413 21.812998,29.9138413 21.812998,29.8046667 L21.9226111,29.6954921 L21.9226111,29.6954921 C22.0322241,29.5863175 22.0322241,29.5863175 22.0322241,29.4771429 L22.0322241,29.4771429 L22.0322241,29.4771429 C22.0322241,29.4771429 22.0322241,29.3679683 22.1418372,29.3679683 C22.1418372,29.3679683 22.1418372,29.2587937 22.2514502,29.2587937 L22.2514502,29.2587937 L22.2514502,29.2587937 L22.2514502,29.2587937 L22.2514502,29.149619 L22.2514502,29.149619 L22.2514502,29.149619 C22.2514502,29.149619 22.2514502,29.149619 22.2514502,29.0404444 L22.2514502,29.0404444 C22.2514502,29.0404444 22.2514502,29.0404444 22.2514502,28.9312698 L22.2514502,28.9312698 C22.3610633,28.8220952 22.3610633,28.7129206 22.4706764,28.7129206 L22.4706764,28.7129206 C22.3610633,28.7129206 22.3610633,28.8220952 22.2514502,28.8220952 C22.2514502,28.8220952 22.1418372,28.8220952 22.1418372,28.7129206 L22.2514502,28.603746 L22.2514502,28.603746 C22.3610633,28.4945714 22.3610633,28.3853968 22.4706764,28.3853968 C22.5802894,28.3853968 22.5802894,28.2762222 22.5802894,28.2762222 L22.5802894,28.2762222 L22.6899025,28.1670476 L22.6899025,28.1670476 C23.2379677,27.6211746 24.3340983,27.6211746 25.1013897,27.1844762 C25.3206158,27.0753016 25.759068,27.1844762 26.0879072,27.1844762 C26.1975202,27.1844762 26.5263594,27.1844762 26.6359725,27.2936508 C26.1975202,27.0753016 25.8686811,27.512 25.3206158,27.7303492 M26.5263594,23.4725397 C26.5263594,23.4725397 26.6359725,23.4725397 26.7455855,23.3633651 L26.1975202,23.3633651 C26.1975202,23.3633651 26.1975202,23.3633651 26.1975202,23.2541905 C25.9782941,23.2541905 25.5398419,23.3633651 25.2110027,23.4725397 C24.7725505,23.5817143 24.4437114,23.9092381 23.8956461,24.0184127 C23.2379677,24.2367619 22.6899025,24.7826349 21.812998,25.1101587 C21.812998,25.1101587 21.812998,25.1101587 21.812998,25.0009841 C21.812998,24.8918095 22.0322241,24.7826349 22.2514502,24.5642857 L22.2514502,24.3459365 C22.7995155,23.6908889 23.4571939,23.2541905 24.0052591,22.7083175 L24.0052591,22.5991429 C24.1148722,22.3807937 24.5533244,22.1624444 24.6629375,21.9440952 C24.6629375,21.8349206 24.8821636,21.5073968 25.3206158,21.3982222 C25.3206158,21.3982222 25.2110027,21.3982222 25.2110027,21.2890476 C24.9917766,21.2890476 24.6629375,21.3982222 24.4437114,21.2890476 C24.5533244,21.179873 24.6629375,21.179873 24.8821636,21.0706984 C24.8821636,21.0706984 24.7725505,21.0706984 24.7725505,20.9615238 C24.7725505,20.8523492 24.8821636,20.7431746 24.9917766,20.7431746 C25.2110027,20.7431746 25.5398419,20.7431746 25.759068,20.5248254 C25.3206158,20.5248254 24.7725505,20.634 24.4437114,20.4156508 C24.6629375,19.6514286 25.2110027,18.8872063 26.0879072,18.5596825 L26.1975202,18.5596825 C26.1975202,18.7780317 26.0879072,19.1055556 25.649455,19.2147302 C26.1975202,19.3239048 26.6359725,19.3239048 27.1840377,19.6514286 C27.1840377,19.7606032 27.0744247,19.6514286 26.9648116,19.6514286 C27.1840377,19.7606032 27.62249,19.6514286 27.9513291,19.8697778 C27.8417161,19.9789524 27.5128769,19.8697778 27.4032638,19.8697778 C29.2666858,20.4156508 31.3493338,20.8523492 32.9935297,22.1624444 C31.678173,22.8174921 30.1435902,23.1450159 28.6090075,23.4725397 C28.4993944,23.4725397 28.3897813,23.4725397 28.0609422,23.4725397 L28.0609422,23.5817143 C27.8417161,23.5817143 27.62249,23.5817143 27.4032638,23.6908889 C27.0744247,23.5817143 26.7455855,23.6908889 26.5263594,23.4725397" id="Rouge_1_" fill="#000091"></path>
                        <path d="M90.6499968,1.55146442e-14 L55.1353669,1.55146442e-14 C55.1353669,1.55146442e-14 55.1353669,1.55146442e-14 55.354593,0.109174603 C55.5738191,0.218349206 56.0122713,0.545873016 56.3411105,0.655047619 C56.7795627,0.873396825 57.327628,1.20092063 57.5468541,1.63761905 C57.6564671,1.74679365 57.7660802,2.18349206 57.6564671,2.40184127 C57.5468541,2.62019048 57.5468541,3.16606349 57.1084019,3.3844127 C56.6699496,3.4935873 56.3411105,3.4935873 55.7930452,3.4935873 C55.5738191,3.4935873 55.2449799,3.4935873 55.0257538,3.3844127 C56.0122713,3.82111111 56.7795627,4.14863492 57.437241,5.02203175 C57.437241,5.13120635 57.6564671,5.13120635 57.9853063,5.13120635 L57.9853063,5.24038095 C57.8756932,5.34955556 57.7660802,5.34955556 57.8756932,5.67707937 L58.3141455,5.67707937 C58.5333716,5.56790476 58.5333716,4.91285714 58.9718238,5.13120635 C59.1910499,5.24038095 59.410276,5.78625397 59.1910499,6.11377778 C58.9718238,6.33212698 58.6429846,6.55047619 58.4237585,6.7688254 C58.4237585,6.878 58.4237585,6.9871746 58.4237585,7.20552381 C58.5333716,7.42387302 58.6429846,7.75139683 58.6429846,7.96974603 C58.7525977,8.40644444 58.8622107,8.95231746 59.0814369,9.27984127 C59.5198891,10.2624127 59.7391152,11.1358095 59.6295021,12.118381 C59.6295021,12.664254 59.410276,13.1009524 59.6295021,13.6468254 C59.7391152,14.1926984 60.0679544,14.4110476 60.2871805,14.9569206 C60.5064066,15.393619 60.8352457,15.6119683 60.9448588,15.9394921 C61.383311,16.5945397 62.0409894,17.1404127 61.7121502,18.0138095 C61.6025371,18.4505079 60.9448588,18.4505079 60.3967935,18.6688571 C59.9583413,18.8872063 60.3967935,19.4330794 60.5064066,19.7606032 C60.7256327,20.3064762 60.0679544,20.7431746 59.7391152,20.8523492 C59.8487282,20.9615238 60.1775674,20.9615238 60.1775674,21.0706984 C60.1775674,21.2890476 60.6160196,21.6165714 60.2871805,21.8349206 C60.0679544,22.271619 59.300663,22.3807937 59.6295021,22.9266667 C59.8487282,23.3633651 59.7391152,23.9092381 59.6295021,24.2367619 C59.5198891,24.7826349 58.9718238,25.0009841 58.5333716,25.2193333 C58.0949194,25.3285079 57.7660802,25.3285079 57.327628,25.2193333 C57.2180149,25.2193333 57.1084019,25.1101587 56.8891758,25.1101587 C55.7930452,25.0009841 54.6969146,24.6734603 53.8200102,24.6734603 C53.6007841,24.6734603 53.1623319,24.7826349 53.0527188,24.8918095 C52.8334927,25.1101587 52.5046535,25.3285079 52.2854274,25.5468571 L52.2854274,25.5468571 L52.1758144,25.6560317 C52.1758144,25.6560317 52.1758144,25.6560317 52.0662013,25.7652063 L52.0662013,25.7652063 C51.9565883,25.9835556 51.6277491,26.2019048 51.518136,26.420254 L51.518136,26.420254 C51.518136,26.420254 51.518136,26.420254 51.518136,26.5294286 C51.2989099,26.966127 51.0796838,27.2936508 51.0796838,27.6211746 C50.6412316,29.149619 50.8604577,30.3505397 51.0796838,30.5688889 C51.1892969,30.6780635 53.1623319,31.2239365 54.4776885,31.8789841 C55.1353669,32.0973333 55.5738191,32.4248571 56.0122713,32.5340317 L90.8692229,32.5340317 L90.8692229,1.55146442e-14 L90.6499968,1.55146442e-14 Z" id="Bleu_1_" fill="#E1000F"></path>
                        <path d="M57.2180149,12.0092063 C57.437241,12.0092063 57.8756932,12.0092063 57.8756932,12.118381 C57.7660802,12.664254 57.1084019,12.7734286 56.6699496,13.210127 L56.5603366,13.210127 C56.4507235,13.3193016 56.4507235,13.6468254 56.3411105,13.6468254 C56.2314974,13.6468254 55.9026583,13.6468254 55.7930452,13.6468254 C56.0122713,13.8651746 56.3411105,14.0835238 56.7795627,14.0835238 C56.7795627,14.0835238 56.8891758,14.1926984 56.8891758,14.301873 C56.8891758,14.301873 56.8891758,14.301873 56.9987888,14.301873 L57.1084019,14.301873 L57.1084019,14.5202222 C56.9987888,14.7385714 56.5603366,14.6293968 56.3411105,14.6293968 C56.8891758,14.7385714 57.327628,14.7385714 57.8756932,14.6293968 C58.3141455,14.5202222 57.8756932,13.8651746 58.0949194,13.5376508 C57.9853063,13.5376508 58.0949194,13.4284762 57.9853063,13.4284762 C58.0949194,13.3193016 58.2045324,13.210127 58.4237585,12.9917778 C58.5333716,12.9917778 58.6429846,12.9917778 58.8622107,12.8826032 C58.8622107,12.7734286 58.6429846,12.7734286 58.7525977,12.664254 C59.1910499,12.4459048 59.410276,12.0092063 59.300663,11.6816825 C59.300663,11.5725079 58.7525977,11.5725079 58.5333716,11.4633333 C58.3141455,11.3541587 57.8756932,11.4633333 57.437241,11.4633333 C57.2180149,11.4633333 56.7795627,11.5725079 56.4507235,11.6816825 C55.6834321,11.7908571 55.354593,12.118381 54.9161408,12.2275556 C55.354593,12.118381 55.6834321,12.0092063 56.2314974,11.7908571 C56.5603366,12.0092063 56.8891758,11.7908571 57.2180149,12.0092063" id="Yeux_1_" fill="#9C9B9B"></path>
                    </g>
                </g>
                <path d="M242.004,23.932 C243.66,23.932 244.992,23.212 245.838,22.096 L244.056,20.728 C243.624,21.358 242.904,21.772 242.004,21.772 C240.474,21.772 239.376,20.638 239.376,19.036 C239.376,17.452 240.474,16.3 241.968,16.3 C242.904,16.3 243.624,16.714 244.056,17.344 L245.838,15.976 C244.992,14.86 243.66,14.14 242.004,14.14 C238.872,14.14 237,16.39 237,19.036 C237,21.682 238.872,23.932 242.004,23.932 Z M252.408,23.932 C255.36,23.932 257.376,21.754 257.376,19.036 C257.376,16.318 255.36,14.14 252.408,14.14 C249.456,14.14 247.44,16.318 247.44,19.036 C247.44,21.754 249.456,23.932 252.408,23.932 Z M252.444,21.772 C250.932,21.772 249.816,20.62 249.816,19.036 C249.816,17.452 250.932,16.3 252.444,16.3 C253.902,16.3 255,17.452 255,19.036 C255,20.602 253.902,21.772 252.444,21.772 Z M262.65,23.572 L262.65,17.65 C262.992,17.074 263.604,16.3 264.756,16.3 C265.872,16.3 266.556,17.056 266.556,18.262 L266.556,23.572 L268.86,23.572 L268.86,18.172 C268.86,15.49 267.294,14.14 265.332,14.14 C264.126,14.14 263.28,14.608 262.65,15.22 L262.65,14.5 L260.364,14.5 L260.364,23.572 L262.65,23.572 Z M275.196,23.932 C276.906,23.932 278.436,22.888 278.472,20.98 C278.472,17.848 274.134,18.388 274.134,16.84 C274.134,16.372 274.476,15.976 275.196,15.976 C275.898,15.976 276.492,16.444 276.96,17.02 L278.472,15.688 C277.824,14.806 276.564,14.14 275.178,14.14 C273.288,14.14 271.938,15.346 271.938,16.948 C271.938,20.134 276.276,19.54 276.276,21.124 C276.276,21.664 275.898,22.096 275.16,22.096 C274.296,22.096 273.63,21.592 273.072,20.89 L271.56,22.258 C272.424,23.284 273.576,23.932 275.196,23.932 Z M285.51,23.932 C288.174,23.932 289.758,22.258 289.758,19.54 L289.758,14.5 L287.454,14.5 L287.454,19.648 C287.454,20.962 286.77,21.772 285.528,21.772 C284.268,21.772 283.584,20.962 283.584,19.648 L283.584,14.5 L281.28,14.5 L281.28,19.54 C281.28,22.258 282.846,23.932 285.51,23.932 Z M295.482,23.572 L295.482,10.072 L293.196,10.072 L293.196,23.572 L295.482,23.572 Z M303.042,23.752 C303.798,23.752 304.338,23.662 304.788,23.464 L304.788,21.466 C304.482,21.592 304.068,21.664 303.438,21.664 C302.538,21.664 301.998,21.268 301.998,20.26 L301.998,16.552 L304.77,16.552 L304.77,14.5 L301.998,14.5 L301.998,12.232 L299.694,12.232 L299.694,14.5 L298.002,14.5 L298.002,16.552 L299.694,16.552 L299.694,20.26 C299.694,22.474 300.774,23.752 303.042,23.752 Z M310.278,23.842 C311.34,23.842 312.42,23.392 312.996,22.69 L312.996,23.572 L315.282,23.572 L315.282,17.704 C315.282,15.706 313.932,14.14 311.304,14.14 C309.648,14.14 308.316,14.824 307.506,15.94 L309.18,17.218 C309.666,16.552 310.35,16.138 311.232,16.138 C312.276,16.138 312.996,16.75 312.996,17.704 L312.996,17.938 L310.224,18.406 C308.28,18.73 307.218,19.756 307.218,21.124 C307.218,22.798 308.46,23.842 310.278,23.842 Z M310.746,22.024 C309.972,22.024 309.486,21.628 309.486,21.016 C309.486,20.458 309.882,20.062 310.836,19.9 L312.996,19.54 L312.996,20.818 C312.546,21.538 311.79,22.024 310.746,22.024 Z M322.716,23.752 C323.472,23.752 324.012,23.662 324.462,23.464 L324.462,21.466 C324.156,21.592 323.742,21.664 323.112,21.664 C322.212,21.664 321.672,21.268 321.672,20.26 L321.672,16.552 L324.444,16.552 L324.444,14.5 L321.672,14.5 L321.672,12.232 L319.368,12.232 L319.368,14.5 L317.676,14.5 L317.676,16.552 L319.368,16.552 L319.368,20.26 C319.368,22.474 320.448,23.752 322.716,23.752 Z M328.548,12.916 C329.358,12.916 330.024,12.232 330.024,11.422 C330.024,10.612 329.358,9.928 328.548,9.928 C327.738,9.928 327.054,10.612 327.054,11.422 C327.054,12.232 327.738,12.916 328.548,12.916 Z M329.682,23.572 L329.682,14.5 L327.396,14.5 L327.396,23.572 L329.682,23.572 Z M337.638,23.932 C340.59,23.932 342.606,21.754 342.606,19.036 C342.606,16.318 340.59,14.14 337.638,14.14 C334.686,14.14 332.67,16.318 332.67,19.036 C332.67,21.754 334.686,23.932 337.638,23.932 Z M337.674,21.772 C336.162,21.772 335.046,20.62 335.046,19.036 C335.046,17.452 336.162,16.3 337.674,16.3 C339.132,16.3 340.23,17.452 340.23,19.036 C340.23,20.602 339.132,21.772 337.674,21.772 Z M347.88,23.572 L347.88,17.65 C348.222,17.074 348.834,16.3 349.986,16.3 C351.102,16.3 351.786,17.056 351.786,18.262 L351.786,23.572 L354.09,23.572 L354.09,18.172 C354.09,15.49 352.524,14.14 350.562,14.14 C349.356,14.14 348.51,14.608 347.88,15.22 L347.88,14.5 L345.594,14.5 L345.594,23.572 L347.88,23.572 Z M358.662,23.788 C359.508,23.788 360.246,23.086 360.246,22.222 C360.246,21.376 359.508,20.656 358.662,20.656 C357.78,20.656 357.078,21.376 357.078,22.222 C357.078,23.086 357.78,23.788 358.662,23.788 Z M364.494,12.916 C365.304,12.916 365.97,12.232 365.97,11.422 C365.97,10.612 365.304,9.928 364.494,9.928 C363.684,9.928 363,10.612 363,11.422 C363,12.232 363.684,12.916 364.494,12.916 Z M365.628,23.572 L365.628,14.5 L363.342,14.5 L363.342,23.572 L365.628,23.572 Z M371.55,23.572 L371.55,17.65 C371.892,17.074 372.504,16.3 373.656,16.3 C374.772,16.3 375.456,17.056 375.456,18.262 L375.456,23.572 L377.76,23.572 L377.76,18.172 C377.76,15.49 376.194,14.14 374.232,14.14 C373.026,14.14 372.18,14.608 371.55,15.22 L371.55,14.5 L369.264,14.5 L369.264,23.572 L371.55,23.572 Z M385.608,23.932 C387.264,23.932 388.596,23.212 389.442,22.096 L387.66,20.728 C387.228,21.358 386.508,21.772 385.608,21.772 C384.078,21.772 382.98,20.638 382.98,19.036 C382.98,17.452 384.078,16.3 385.572,16.3 C386.508,16.3 387.228,16.714 387.66,17.344 L389.442,15.976 C388.596,14.86 387.264,14.14 385.608,14.14 C382.476,14.14 380.604,16.39 380.604,19.036 C380.604,21.682 382.476,23.932 385.608,23.932 Z M394.338,23.572 L394.338,10.072 L392.052,10.072 L392.052,23.572 L394.338,23.572 Z M402.006,23.932 C404.67,23.932 406.254,22.258 406.254,19.54 L406.254,14.5 L403.95,14.5 L403.95,19.648 C403.95,20.962 403.266,21.772 402.024,21.772 C400.764,21.772 400.08,20.962 400.08,19.648 L400.08,14.5 L397.776,14.5 L397.776,19.54 C397.776,22.258 399.342,23.932 402.006,23.932 Z M412.464,23.932 C414.174,23.932 415.704,22.888 415.74,20.98 C415.74,17.848 411.402,18.388 411.402,16.84 C411.402,16.372 411.744,15.976 412.464,15.976 C413.166,15.976 413.76,16.444 414.228,17.02 L415.74,15.688 C415.092,14.806 413.832,14.14 412.446,14.14 C410.556,14.14 409.206,15.346 409.206,16.948 C409.206,20.134 413.544,19.54 413.544,21.124 C413.544,21.664 413.166,22.096 412.428,22.096 C411.564,22.096 410.898,21.592 410.34,20.89 L408.828,22.258 C409.692,23.284 410.844,23.932 412.464,23.932 Z M419.898,12.916 C420.708,12.916 421.374,12.232 421.374,11.422 C421.374,10.612 420.708,9.928 419.898,9.928 C419.088,9.928 418.404,10.612 418.404,11.422 C418.404,12.232 419.088,12.916 419.898,12.916 Z M421.032,23.572 L421.032,14.5 L418.746,14.5 L418.746,23.572 L421.032,23.572 Z M428.988,23.932 C431.94,23.932 433.956,21.754 433.956,19.036 C433.956,16.318 431.94,14.14 428.988,14.14 C426.036,14.14 424.02,16.318 424.02,19.036 C424.02,21.754 426.036,23.932 428.988,23.932 Z M429.024,21.772 C427.512,21.772 426.396,20.62 426.396,19.036 C426.396,17.452 427.512,16.3 429.024,16.3 C430.482,16.3 431.58,17.452 431.58,19.036 C431.58,20.602 430.482,21.772 429.024,21.772 Z M439.23,23.572 L439.23,17.65 C439.572,17.074 440.184,16.3 441.336,16.3 C442.452,16.3 443.136,17.056 443.136,18.262 L443.136,23.572 L445.44,23.572 L445.44,18.172 C445.44,15.49 443.874,14.14 441.912,14.14 C440.706,14.14 439.86,14.608 439.23,15.22 L439.23,14.5 L436.944,14.5 L436.944,23.572 L439.23,23.572 Z M450.012,23.788 C450.858,23.788 451.596,23.086 451.596,22.222 C451.596,21.376 450.858,20.656 450.012,20.656 C449.13,20.656 448.428,21.376 448.428,22.222 C448.428,23.086 449.13,23.788 450.012,23.788 Z M459.642,23.932 C462.468,23.932 464.34,21.682 464.34,19.036 C464.34,16.39 462.468,14.14 459.642,14.14 C458.22,14.14 457.014,14.734 456.168,15.796 L456.168,10.072 L455.106,10.072 L455.106,23.572 L456.168,23.572 L456.168,22.276 C457.014,23.338 458.22,23.932 459.642,23.932 Z M459.552,22.924 C458.184,22.924 456.942,22.276 456.168,21.052 L456.168,17.02 C456.906,15.814 458.166,15.148 459.552,15.148 C461.712,15.148 463.206,16.894 463.206,19.036 C463.206,21.178 461.712,22.924 459.552,22.924 Z M472.008,23.932 C473.664,23.932 474.996,23.212 475.824,22.078 L475.014,21.43 C474.348,22.366 473.286,22.96 472.008,22.96 C469.776,22.96 468.21,21.286 468.21,18.982 L468.21,18.766 L468.21,18.766 L475.536,18.766 C475.59,18.55 475.608,18.28 475.608,18.01 C475.608,15.868 474.06,14.14 471.63,14.14 C468.912,14.14 467.112,16.228 467.112,19.036 C467.112,21.682 469.038,23.932 472.008,23.932 Z M474.528,17.92 L468.318,17.92 C468.66,16.138 469.92,15.076 471.612,15.076 C473.376,15.076 474.474,16.336 474.528,17.92 Z M482.79,23.752 C483.366,23.752 483.816,23.68 484.23,23.536 L484.23,22.564 C483.87,22.69 483.474,22.762 482.898,22.762 C481.674,22.762 480.828,22.366 480.828,20.71 L480.828,15.454 L484.23,15.454 L484.23,14.5 L480.828,14.5 L480.828,12.232 L479.748,12.232 L479.748,14.5 L478.038,14.5 L478.038,15.454 L479.748,15.454 L479.748,20.71 C479.748,22.924 480.936,23.752 482.79,23.752 Z M490.044,23.824 C491.304,23.824 492.528,23.284 493.302,22.258 L493.302,23.572 L494.346,23.572 L494.346,17.362 C494.346,15.364 492.978,14.14 490.89,14.14 C489.324,14.14 488.082,14.806 487.308,15.868 L488.118,16.498 C488.73,15.634 489.684,15.112 490.854,15.112 C492.276,15.112 493.302,15.904 493.302,17.362 L493.302,18.208 L490.062,18.748 C488.154,19.072 487.11,20.008 487.11,21.376 C487.11,22.87 488.28,23.824 490.044,23.824 Z M490.17,22.906 C488.946,22.906 488.19,22.24 488.19,21.358 C488.19,20.458 488.856,19.792 490.296,19.54 L493.302,19.036 L493.302,21.106 C492.618,22.276 491.484,22.906 490.17,22.906 Z M499.314,23.77 C499.818,23.77 500.214,23.392 500.214,22.888 C500.214,22.384 499.818,22.006 499.314,22.006 C498.792,22.006 498.414,22.384 498.414,22.888 C498.414,23.392 498.792,23.77 499.314,23.77 Z M507.324,28.072 C509.988,28.072 511.86,26.722 511.86,24.886 C511.86,23.32 510.834,22.186 508.368,22.186 L505.596,22.186 C504.93,22.186 504.732,21.862 504.732,21.448 C504.732,21.052 505.02,20.602 505.56,20.296 C505.992,20.458 506.478,20.566 507.018,20.566 C509.124,20.566 510.474,19.054 510.474,17.344 C510.474,16.642 510.24,15.976 509.844,15.436 L512.112,15.436 L512.112,14.5 L508.71,14.5 C508.224,14.266 507.648,14.122 507.018,14.122 C504.93,14.122 503.58,15.634 503.58,17.344 C503.58,18.352 504.048,19.288 504.858,19.882 C504.156,20.296 503.724,20.908 503.724,21.61 C503.724,22.096 503.94,22.582 504.39,22.888 C503.454,23.572 502.986,24.31 502.986,25.246 C502.986,26.992 504.768,28.072 507.324,28.072 Z M507.036,19.666 C505.47,19.666 504.624,18.586 504.624,17.344 C504.624,16.084 505.47,15.022 507.036,15.022 C508.566,15.022 509.412,16.084 509.412,17.344 C509.412,18.568 508.566,19.666 507.036,19.666 Z M507.306,27.154 C505.38,27.154 504.048,26.38 504.048,25.156 C504.048,24.346 504.498,23.716 505.326,23.158 L508.332,23.158 C510.258,23.158 510.798,23.95 510.798,24.94 C510.798,26.308 509.394,27.154 507.306,27.154 Z M518.646,23.932 C521.562,23.932 523.524,21.628 523.524,19.036 C523.524,16.444 521.562,14.14 518.646,14.14 C515.748,14.14 513.786,16.444 513.786,19.036 C513.786,21.628 515.748,23.932 518.646,23.932 Z M518.664,22.924 C516.45,22.924 514.884,21.106 514.884,19.036 C514.884,16.966 516.45,15.148 518.664,15.148 C520.806,15.148 522.39,16.948 522.39,19.036 C522.39,21.088 520.806,22.924 518.664,22.924 Z M530.814,23.932 C533.136,23.932 534.684,22.402 534.684,19.702 L534.684,14.5 L533.64,14.5 L533.64,19.72 C533.64,21.772 532.488,22.924 530.814,22.924 C529.104,22.924 527.97,21.772 527.97,19.72 L527.97,14.5 L526.908,14.5 L526.908,19.702 C526.908,22.402 528.474,23.932 530.814,23.932 Z M542.658,23.572 L546.348,14.5 L545.196,14.5 L541.956,22.546 L538.698,14.5 L537.564,14.5 L541.254,23.572 L542.658,23.572 Z M548.598,23.77 C549.102,23.77 549.498,23.392 549.498,22.888 C549.498,22.384 549.102,22.006 548.598,22.006 C548.076,22.006 547.698,22.384 547.698,22.888 C547.698,23.392 548.076,23.77 548.598,23.77 Z M555.24,23.572 L555.24,15.454 L558.642,15.454 L558.642,14.5 L555.24,14.5 L555.24,13.276 C555.24,11.854 556.05,11.044 557.22,11.044 C557.796,11.044 558.246,11.206 558.642,11.494 L559.11,10.594 C558.678,10.324 558.012,10.072 557.184,10.072 C555.384,10.072 554.16,11.35 554.16,13.294 L554.16,14.5 L552.45,14.5 L552.45,15.454 L554.16,15.454 L554.16,23.572 L555.24,23.572 Z M562.098,23.572 L562.098,17.074 C562.782,15.94 563.592,15.328 564.834,15.328 C565.158,15.328 565.392,15.382 565.662,15.454 L565.662,14.428 C565.428,14.356 565.158,14.32 564.906,14.32 C563.682,14.32 562.836,14.86 562.098,15.796 L562.098,14.5 L561.036,14.5 L561.036,23.572 L562.098,23.572 Z" id="consultation.inclusion.beta.gouv.fr" fill="#000000"></path>
            </g>
        </g>
    </g>
</svg>