<?xml version="1.0" encoding="UTF-8"?>
<svg width="470px" height="39px" viewBox="0 0 470 39" version="1.1" xmlns="http://www.w3.org/2000/svg" xmlns:xlink="http://www.w3.org/1999/xlink">
    <title>LogoHeaderFull</title>
    <g id="🔄-Symbols" stroke="none" stroke-width="1" fill="none" fill-rule="evenodd">
        <g id="itou/Header/CibleLess" transform="translate(-72.000000, -15.000000)">
            <g id="Header" transform="translate(0.000000, -1.000000)" fill="#FFFFFF">
                <rect id="Rectangle" x="1" y="0" width="1440" height="70"></rect>
            </g>
            <g id="icon-custom/GouvFr/BlocMarqueCompact" transform="translate(72.000000, 15.000000)">
                <g id="Bloc" transform="translate(97.714286, 0.000000)" fill="#000000" fill-rule="nonzero">
                    <g id="RepFr">
                        <path d="M2.56952381,13.0285714 L2.56952381,7.90761905 L3.89047619,7.90761905 L7.25619048,13.0285714 L10.332381,13.0285714 L6.35142857,7.41904762 C6.99079365,7.11746032 7.4884127,6.68619048 7.84428571,6.1252381 C8.20015873,5.56428571 8.37809524,4.90380952 8.37809524,4.14380952 C8.37809524,2.97365079 7.97396825,2.05079365 7.16571429,1.3752381 C6.35746032,0.69968254 5.25968254,0.361904762 3.87238095,0.361904762 L3.87238095,0.361904762 L-2.571488e-13,0.361904762 L-2.571488e-13,13.0285714 L2.56952381,13.0285714 Z M4.01714286,5.71809524 L2.56952381,5.71809524 L2.56952381,2.55142857 L4.01714286,2.55142857 C4.56,2.55142857 4.98222222,2.69015873 5.28380952,2.96761905 C5.58539683,3.24507937 5.73619048,3.62507937 5.73619048,4.10761905 C5.73619048,4.62634921 5.58539683,5.02444444 5.28380952,5.30190476 C4.98222222,5.57936508 4.56,5.71809524 4.01714286,5.71809524 L4.01714286,5.71809524 Z M19.4885714,13.0285714 L19.4885714,10.8390476 L14.6752381,10.8390476 L14.6752381,7.67238095 L18.7647619,7.67238095 L18.7647619,5.48285714 L14.6752381,5.48285714 L14.6752381,2.55142857 L19.4885714,2.55142857 L19.4885714,0.361904762 L12.1057143,0.361904762 L12.1057143,13.0285714 L19.4885714,13.0285714 Z M25.2247619,13.0285714 L25.2247619,7.90761905 L26.8352381,7.90761905 C28.2225397,7.90761905 29.3173016,7.56984127 30.1195238,6.89428571 C30.921746,6.21873016 31.3228571,5.30190476 31.3228571,4.14380952 C31.3228571,2.97365079 30.921746,2.05079365 30.1195238,1.3752381 C29.3173016,0.69968254 28.2225397,0.361904762 26.8352381,0.361904762 L26.8352381,0.361904762 L22.6552381,0.361904762 L22.6552381,13.0285714 L25.2247619,13.0285714 Z M26.9438095,5.71809524 L25.2247619,5.71809524 L25.2247619,2.55142857 L26.9438095,2.55142857 C27.4866667,2.55142857 27.9119048,2.69015873 28.2195238,2.96761905 C28.5271429,3.24507937 28.6809524,3.62507937 28.6809524,4.10761905 C28.6809524,4.62634921 28.5271429,5.02444444 28.2195238,5.30190476 C27.9119048,5.57936508 27.4866667,5.71809524 26.9438095,5.71809524 L26.9438095,5.71809524 Z M38.38,13.3904762 C39.9603175,13.3904762 41.2119048,12.9169841 42.1347619,11.97 C43.057619,11.0230159 43.5190476,9.7231746 43.5190476,8.07047619 L43.5190476,8.07047619 L43.5190476,0.361904762 L40.9495238,0.361904762 L40.9495238,8.28761905 C40.9495238,9.13206349 40.7203175,9.79253968 40.2619048,10.2690476 C39.8034921,10.7455556 39.1822222,10.9838095 38.3980952,10.9838095 C37.6019048,10.9838095 36.9746032,10.7455556 36.5161905,10.2690476 C36.0577778,9.79253968 35.8285714,9.13206349 35.8285714,8.28761905 L35.8285714,8.28761905 L35.8285714,0.361904762 L33.2590476,0.361904762 L33.2590476,8.07047619 C33.2590476,9.7231746 33.7174603,11.0230159 34.6342857,11.97 C35.5511111,12.9169841 36.7996825,13.3904762 38.38,13.3904762 Z M50.7571429,13.0285714 C52.2047619,13.0285714 53.3507937,12.6968254 54.1952381,12.0333333 C55.0396825,11.3698413 55.4619048,10.4590476 55.4619048,9.30095238 C55.4619048,8.64952381 55.2809524,8.06142857 54.9190476,7.53666667 C54.5571429,7.01190476 54.0444444,6.59873016 53.3809524,6.29714286 C53.8152381,5.99555556 54.1469841,5.63063492 54.3761905,5.20238095 C54.6053968,4.77412698 54.72,4.30666667 54.72,3.8 C54.72,2.7384127 54.3430159,1.9 53.5890476,1.2847619 C52.8350794,0.66952381 51.8006349,0.361904762 50.4857143,0.361904762 L50.4857143,0.361904762 L46.8847619,0.361904762 L46.8847619,13.0285714 L50.7571429,13.0285714 Z M50.54,5.32 L49.4542857,5.32 L49.4542857,2.55142857 L50.54,2.55142857 C51.0225397,2.55142857 51.3995238,2.67507937 51.6709524,2.92238095 C51.942381,3.16968254 52.0780952,3.50444444 52.0780952,3.92666667 C52.0780952,4.37301587 51.942381,4.7168254 51.6709524,4.95809524 C51.3995238,5.19936508 51.0225397,5.32 50.54,5.32 L50.54,5.32 Z M50.9019048,10.8390476 L49.4542857,10.8390476 L49.4542857,7.52761905 L50.9019048,7.52761905 C51.4930159,7.52761905 51.9604762,7.66936508 52.3042857,7.95285714 C52.6480952,8.23634921 52.82,8.63746032 52.82,9.15619048 C52.82,9.67492063 52.6480952,10.0850794 52.3042857,10.3866667 C51.9604762,10.688254 51.4930159,10.8390476 50.9019048,10.8390476 L50.9019048,10.8390476 Z M65.6495238,13.0285714 L65.6495238,10.6942857 L60.8361905,10.6942857 L60.8361905,0.361904762 L58.2666667,0.361904762 L58.2666667,13.0285714 L65.6495238,13.0285714 Z M70.6619048,13.0285714 L70.6619048,0.361904762 L68.092381,0.361904762 L68.092381,13.0285714 L70.6619048,13.0285714 Z M87.2371429,16.1771429 C87.5146032,16.1771429 87.755873,16.1590476 87.9609524,16.1228571 C88.1660317,16.0866667 88.3711111,16.0263492 88.5761905,15.9419048 L88.5761905,15.9419048 L88.5761905,13.7704762 C88.4434921,13.8187302 88.2926984,13.8549206 88.1238095,13.8790476 C87.9549206,13.9031746 87.804127,13.9152381 87.6714286,13.9152381 C87.2612698,13.9152381 86.8360317,13.8247619 86.3957143,13.6438095 C85.9553968,13.4628571 85.4939683,13.1492063 85.0114286,12.7028571 L85.0114286,12.7028571 L84.2514286,11.9790476 C85.0234921,11.3638095 85.6326984,10.591746 86.0790476,9.66285714 C86.5253968,8.73396825 86.7485714,7.7447619 86.7485714,6.6952381 C86.7485714,5.79047619 86.5857143,4.93095238 86.26,4.11666667 C85.9342857,3.30238095 85.475873,2.59365079 84.8847619,1.99047619 C84.2936508,1.38730159 83.5849206,0.904761905 82.7585714,0.542857143 C81.9322222,0.180952381 81.0244444,0 80.0352381,0 C79.0460317,0 78.1352381,0.180952381 77.3028571,0.542857143 C76.4704762,0.904761905 75.7587302,1.38730159 75.167619,1.99047619 C74.5765079,2.59365079 74.1180952,3.30238095 73.792381,4.11666667 C73.4666667,4.93095238 73.3038095,5.79047619 73.3038095,6.6952381 C73.3038095,7.6 73.4666667,8.45952381 73.792381,9.27380952 C74.1180952,10.0880952 74.5765079,10.7968254 75.167619,11.4 C75.7587302,12.0031746 76.4704762,12.4857143 77.3028571,12.847619 C78.1352381,13.2095238 79.0460317,13.3904762 80.0352381,13.3904762 C80.3368254,13.3904762 80.6353968,13.372381 80.9309524,13.3361905 C81.2265079,13.3 81.5069841,13.2457143 81.772381,13.1733333 L81.772381,13.1733333 L83.2742857,14.512381 C83.8895238,15.0552381 84.5288889,15.4684127 85.192381,15.7519048 C85.855873,16.0353968 86.5374603,16.1771429 87.2371429,16.1771429 Z M80.0352381,10.9838095 C79.444127,10.9838095 78.8952381,10.8722222 78.3885714,10.6490476 C77.8819048,10.425873 77.4506349,10.1242857 77.0947619,9.74428571 C76.7388889,9.36428571 76.4584127,8.91190476 76.2533333,8.38714286 C76.048254,7.86238095 75.9457143,7.2984127 75.9457143,6.6952381 C75.9457143,6.09206349 76.048254,5.52809524 76.2533333,5.00333333 C76.4584127,4.47857143 76.7388889,4.02619048 77.0947619,3.64619048 C77.4506349,3.26619048 77.8819048,2.96460317 78.3885714,2.74142857 C78.8952381,2.51825397 79.444127,2.40666667 80.0352381,2.40666667 C80.6263492,2.40666667 81.1722222,2.51825397 81.6728571,2.74142857 C82.1734921,2.96460317 82.601746,3.26619048 82.957619,3.64619048 C83.3134921,4.02619048 83.5939683,4.47857143 83.7990476,5.00333333 C84.004127,5.52809524 84.1066667,6.09206349 84.1066667,6.6952381 C84.1066667,7.2984127 84.004127,7.86238095 83.7990476,8.38714286 C83.5939683,8.91190476 83.3134921,9.36428571 82.957619,9.74428571 C82.601746,10.1242857 82.1734921,10.425873 81.6728571,10.6490476 C81.1722222,10.8722222 80.6263492,10.9838095 80.0352381,10.9838095 Z M94.1495238,13.3904762 C95.7298413,13.3904762 96.9814286,12.9169841 97.9042857,11.97 C98.8271429,11.0230159 99.2885714,9.7231746 99.2885714,8.07047619 L99.2885714,8.07047619 L99.2885714,0.361904762 L96.7190476,0.361904762 L96.7190476,8.28761905 C96.7190476,9.13206349 96.4898413,9.79253968 96.0314286,10.2690476 C95.5730159,10.7455556 94.951746,10.9838095 94.167619,10.9838095 C93.3714286,10.9838095 92.744127,10.7455556 92.2857143,10.2690476 C91.8273016,9.79253968 91.5980952,9.13206349 91.5980952,8.28761905 L91.5980952,8.28761905 L91.5980952,0.361904762 L89.0285714,0.361904762 L89.0285714,8.07047619 C89.0285714,9.7231746 89.4869841,11.0230159 90.4038095,11.97 C91.3206349,12.9169841 92.5692063,13.3904762 94.1495238,13.3904762 Z M110.037143,13.0285714 L110.037143,10.8390476 L105.22381,10.8390476 L105.22381,7.67238095 L109.313333,7.67238095 L109.313333,5.48285714 L105.22381,5.48285714 L105.22381,2.55142857 L110.037143,2.55142857 L110.037143,0.361904762 L102.654286,0.361904762 L102.654286,13.0285714 L110.037143,13.0285714 Z" id="REPUBLIQUE"></path>
                        <path d="M2.56952381,32.9333333 L2.56952381,27.5771429 L6.65904762,27.5771429 L6.65904762,25.387619 L2.56952381,25.387619 L2.56952381,22.4561905 L7.38285714,22.4561905 L7.38285714,20.2666667 L-2.0571904e-13,20.2666667 L-2.0571904e-13,32.9333333 L2.56952381,32.9333333 Z M12.3952381,32.9333333 L12.3952381,27.812381 L13.7161905,27.812381 L17.0819048,32.9333333 L20.1580952,32.9333333 L16.1771429,27.3238095 C16.8165079,27.0222222 17.314127,26.5909524 17.67,26.03 C18.025873,25.4690476 18.2038095,24.8085714 18.2038095,24.0485714 C18.2038095,22.8784127 17.7996825,21.9555556 16.9914286,21.28 C16.1831746,20.6044444 15.0853968,20.2666667 13.6980952,20.2666667 L13.6980952,20.2666667 L9.82571429,20.2666667 L9.82571429,32.9333333 L12.3952381,32.9333333 Z M13.8428571,25.6228571 L12.3952381,25.6228571 L12.3952381,22.4561905 L13.8428571,22.4561905 C14.3857143,22.4561905 14.8079365,22.5949206 15.1095238,22.872381 C15.4111111,23.1498413 15.5619048,23.5298413 15.5619048,24.012381 C15.5619048,24.5311111 15.4111111,24.9292063 15.1095238,25.2066667 C14.8079365,25.484127 14.3857143,25.6228571 13.8428571,25.6228571 L13.8428571,25.6228571 Z M23.0714286,32.9333333 L24.2838095,29.64 L29.3504762,29.64 L30.5628571,32.9333333 L33.2952381,32.9333333 L28.5,20.2666667 L25.1342857,20.2666667 L20.3390476,32.9333333 L23.0714286,32.9333333 Z M28.5542857,27.4504762 L25.08,27.4504762 L26.8171429,22.6914286 L28.5542857,27.4504762 Z M38,32.9333333 L38,23.8314286 L43.6638095,32.9333333 L46.9571429,32.9333333 L46.9571429,20.2666667 L44.387619,20.2666667 L44.387619,29.332381 L38.7238095,20.2666667 L35.4304762,20.2666667 L35.4304762,32.9333333 L38,32.9333333 Z M55.7514286,35.8466667 L57.3257143,33.2228571 C58.2425397,33.1022222 59.0749206,32.8187302 59.8228571,32.372381 C60.5707937,31.9260317 61.1860317,31.3711111 61.6685714,30.707619 L61.6685714,30.707619 L59.6419048,29.1514286 C59.28,29.6701587 58.8185714,30.0893651 58.257619,30.4090476 C57.6966667,30.7287302 57.0542857,30.8885714 56.3304762,30.8885714 C55.7393651,30.8885714 55.1904762,30.7769841 54.6838095,30.5538095 C54.1771429,30.3306349 53.745873,30.0290476 53.39,29.6490476 C53.034127,29.2690476 52.7536508,28.8166667 52.5485714,28.2919048 C52.3434921,27.7671429 52.2409524,27.2031746 52.2409524,26.6 C52.2409524,25.9968254 52.3434921,25.4328571 52.5485714,24.9080952 C52.7536508,24.3833333 53.034127,23.9309524 53.39,23.5509524 C53.745873,23.1709524 54.1771429,22.8693651 54.6838095,22.6461905 C55.1904762,22.4230159 55.7393651,22.3114286 56.3304762,22.3114286 C57.0542857,22.3114286 57.6966667,22.4712698 58.257619,22.7909524 C58.8185714,23.1106349 59.28,23.5298413 59.6419048,24.0485714 L59.6419048,24.0485714 L61.6685714,22.4742857 C61.0895238,21.7142857 60.3415873,21.0960317 59.4247619,20.6195238 C58.5079365,20.1430159 57.4765079,19.9047619 56.3304762,19.9047619 C55.3412698,19.9047619 54.4304762,20.0857143 53.5980952,20.447619 C52.7657143,20.8095238 52.0539683,21.2920635 51.4628571,21.8952381 C50.871746,22.4984127 50.4133333,23.2071429 50.087619,24.0214286 C49.7619048,24.8357143 49.5990476,25.6952381 49.5990476,26.6 C49.5990476,27.3961905 49.7287302,28.1622222 49.9880952,28.8980952 C50.2474603,29.6339683 50.6153968,30.2944444 51.0919048,30.8795238 C51.5684127,31.4646032 52.1444444,31.9592063 52.82,32.3633333 C53.4955556,32.7674603 54.2434921,33.0419048 55.0638095,33.1866667 L55.0638095,33.1866667 L53.4714286,35.8466667 L55.7514286,35.8466667 Z M65.2152381,32.9333333 L66.427619,29.64 L71.4942857,29.64 L72.7066667,32.9333333 L75.4390476,32.9333333 L70.6438095,20.2666667 L67.2780952,20.2666667 L62.4828571,32.9333333 L65.2152381,32.9333333 Z M70.6980952,27.4504762 L67.2238095,27.4504762 L68.9609524,22.6914286 L70.6980952,27.4504762 Z M80.1438095,32.9333333 L80.1438095,20.2666667 L77.5742857,20.2666667 L77.5742857,32.9333333 L80.1438095,32.9333333 Z M87.4361905,33.2952381 C88.0152381,33.2952381 88.5580952,33.2077778 89.0647619,33.0328571 C89.5714286,32.8579365 90.011746,32.607619 90.3857143,32.2819048 C90.7596825,31.9561905 91.058254,31.5580952 91.2814286,31.087619 C91.5046032,30.6171429 91.6222222,30.0863492 91.6342857,29.4952381 C91.6342857,28.4336508 91.3326984,27.6253968 90.7295238,27.0704762 C90.1263492,26.5155556 89.4628571,26.0661905 88.7390476,25.722381 C88.0152381,25.3785714 87.351746,25.0588889 86.7485714,24.7633333 C86.1453968,24.4677778 85.8438095,24.0365079 85.8438095,23.4695238 C85.8438095,23.0955556 85.9765079,22.7819048 86.2419048,22.5285714 C86.5073016,22.2752381 86.8631746,22.1485714 87.3095238,22.1485714 C87.7920635,22.1485714 88.2414286,22.2903175 88.657619,22.5738095 C89.0738095,22.8573016 89.4688889,23.2403175 89.8428571,23.7228571 L89.8428571,23.7228571 L91.7247619,22.04 C91.1939683,21.4006349 90.557619,20.8849206 89.8157143,20.4928571 C89.0738095,20.1007937 88.232381,19.9047619 87.2914286,19.9047619 C86.688254,19.9047619 86.1393651,20.0012698 85.6447619,20.1942857 C85.1501587,20.3873016 84.7249206,20.6496825 84.3690476,20.9814286 C84.0131746,21.3131746 83.7357143,21.7052381 83.5366667,22.157619 C83.337619,22.61 83.2380952,23.0834921 83.2380952,23.5780952 C83.2380952,24.627619 83.5396825,25.4238095 84.1428571,25.9666667 C84.7460317,26.5095238 85.4095238,26.9528571 86.1333333,27.2966667 C86.8571429,27.6404762 87.5206349,27.9601587 88.1238095,28.2557143 C88.7269841,28.5512698 89.0285714,28.9825397 89.0285714,29.5495238 C89.0285714,30.0079365 88.8838095,30.3668254 88.5942857,30.6261905 C88.3047619,30.8855556 87.9066667,31.0152381 87.4,31.0152381 C86.8812698,31.0152381 86.377619,30.8765079 85.8890476,30.5990476 C85.4004762,30.3215873 84.9692063,29.9415873 84.5952381,29.4590476 L84.5952381,29.4590476 L82.7314286,31.1780952 C83.2863492,31.8415873 83.9438095,32.3603175 84.7038095,32.7342857 C85.4638095,33.108254 86.3746032,33.2952381 87.4361905,33.2952381 Z M101.894286,32.9333333 L101.894286,30.7438095 L97.0809524,30.7438095 L97.0809524,27.5771429 L101.170476,27.5771429 L101.170476,25.387619 L97.0809524,25.387619 L97.0809524,22.4561905 L101.894286,22.4561905 L101.894286,20.2666667 L94.5114286,20.2666667 L94.5114286,32.9333333 L101.894286,32.9333333 Z" id="FRANÇAISE"></path>
                    </g>
                </g>
                <g id="icon-custom/GouvFr/Marianne" transform="translate(0.000000, 0.361905)">
                    <rect id="Rectangle" fill="#FFFFFF" x="0" y="0" width="90.978836" height="32.752381"></rect>
                    <path d="M37.3780519,28.9312698 C37.8165041,28.4945714 38.0357302,28.2762222 38.4741824,27.8395238 L38.4741824,27.8395238 C39.1318608,27.0753016 39.7895391,26.3110794 40.5568305,25.6560317 C40.7760566,25.4376825 40.9952827,25.2193333 41.2145088,25.1101587 C41.2145088,25.1101587 41.2145088,25.0009841 41.3241219,24.8918095 C41.1048958,25.0009841 40.7760566,25.3285079 40.5568305,25.4376825 C40.5568305,25.4376825 40.4472174,25.4376825 40.5568305,25.3285079 C40.7760566,25.2193333 40.9952827,25.1101587 41.2145088,24.7826349 L41.2145088,24.7826349 C41.2145088,24.7826349 41.2145088,24.7826349 41.2145088,24.6734603 C40.4472174,24.5642857 39.6799261,25.1101587 39.1318608,25.6560317 C39.0222477,25.6560317 38.9126347,25.6560317 38.9126347,25.6560317 C37.9261172,25.874381 37.2684388,26.7477778 36.3915344,27.1844762 L36.3915344,27.0753016 C35.9530822,27.1844762 35.7338561,27.512 35.2954038,27.512 C34.7473386,27.6211746 34.1992733,27.512 33.7608211,27.512 C32.9935297,27.6211746 32.2262383,27.7303492 31.4589469,27.9486984 L31.4589469,27.9486984 C31.0204947,28.057873 30.6916555,28.1670476 30.2532033,28.3853968 L30.2532033,28.3853968 C30.2532033,28.3853968 30.2532033,28.4945714 30.1435902,28.4945714 C30.0339772,28.603746 29.9243641,28.7129206 29.705138,28.9312698 C29.2666858,29.0404444 29.0474597,29.4771429 28.6090075,29.6954921 C28.6090075,29.6954921 28.6090075,29.6954921 28.4993944,29.6954921 C28.2801683,29.9138413 27.8417161,30.3505397 27.5128769,30.6780635 L27.4032638,30.6780635 L27.4032638,30.6780635 L27.4032638,30.6780635 C27.4032638,30.5688889 27.5128769,30.5688889 27.5128769,30.4597143 C27.5128769,30.3505397 27.62249,30.3505397 27.62249,30.2413651 C27.732103,30.1321905 27.732103,30.0230159 27.8417161,29.8046667 C27.8417161,29.8046667 27.8417161,29.8046667 27.8417161,29.6954921 C27.8417161,29.6954921 27.8417161,29.6954921 27.732103,29.6954921 C27.9513291,29.4771429 28.3897813,29.149619 28.8282336,28.9312698 L28.8282336,28.9312698 L28.7186205,28.9312698 L28.8282336,28.8220952 L28.8282336,28.8220952 L28.8282336,28.8220952 C28.7186205,28.8220952 28.6090075,28.9312698 28.6090075,29.0404444 C28.4993944,29.149619 28.3897813,29.4771429 28.0609422,29.4771429 C28.0609422,29.4771429 28.0609422,29.4771429 27.9513291,29.4771429 L27.9513291,29.4771429 L27.9513291,29.4771429 L27.9513291,29.4771429 L27.9513291,29.4771429 L27.9513291,29.4771429 L27.9513291,29.4771429 L27.9513291,29.4771429 C27.9513291,29.4771429 27.9513291,29.4771429 27.9513291,29.3679683 L27.9513291,29.3679683 C27.9513291,29.3679683 27.9513291,29.2587937 28.0609422,29.2587937 L28.0609422,29.2587937 L28.0609422,28.7129206 L28.0609422,28.603746 C28.1705552,28.4945714 28.2801683,28.3853968 28.4993944,28.1670476 L28.4993944,28.1670476 C28.7186205,28.057873 29.0474597,27.9486984 29.1570727,27.7303492 C29.1570727,27.7303492 29.2666858,27.7303492 29.2666858,27.6211746 C28.8282336,27.7303492 28.6090075,27.8395238 28.2801683,28.1670476 L28.1705552,28.1670476 L28.0609422,28.1670476 L28.0609422,28.1670476 C28.0609422,28.057873 28.2801683,28.057873 28.4993944,27.9486984 L28.6090075,27.9486984 C30.6916555,26.420254 33.3223688,26.7477778 35.624243,25.874381 C35.7338561,25.7652063 36.0626952,25.6560317 36.1723083,25.4376825 C36.3915344,25.3285079 36.7203736,25.0009841 37.1588258,24.7826349 C37.7068911,24.3459365 37.9261172,24.0184127 38.2549563,23.2541905 L38.2549563,23.1450159 C37.4876649,23.9092381 36.5011474,24.6734603 35.5146299,25.2193333 C34.1992733,25.874381 32.7743036,25.7652063 31.4589469,25.9835556 C31.4589469,25.874381 31.56856,25.874381 31.678173,25.874381 C31.678173,25.7652063 31.7877861,25.6560317 31.8973991,25.4376825 L32.1166252,25.4376825 C32.1166252,25.4376825 32.1166252,25.3285079 32.2262383,25.3285079 C32.3358513,25.3285079 32.4454644,25.3285079 32.4454644,25.3285079 C32.3358513,25.1101587 31.8973991,25.4376825 31.678173,25.3285079 C31.7877861,25.2193333 31.678173,25.1101587 31.7877861,24.8918095 L32.1166252,24.8918095 C32.1166252,24.7826349 32.2262383,24.6734603 32.2262383,24.6734603 C33.2127558,24.1275873 33.9800472,23.6908889 34.9665647,23.1450159 C34.8569516,23.1450159 34.7473386,23.2541905 34.4184994,23.1450159 C34.5281124,23.1450159 34.4184994,23.0358413 34.5281124,23.0358413 C35.1857908,22.9266667 35.7338561,22.4899683 36.3915344,22.271619 C36.1723083,22.271619 35.9530822,22.3807937 35.7338561,22.271619 C35.8434691,22.271619 35.8434691,22.1624444 36.1723083,22.1624444 L36.1723083,22.0532698 C36.1723083,22.0532698 36.1723083,22.0532698 36.2819213,22.0532698 L36.1723083,22.0532698 C36.1723083,21.9440952 36.3915344,22.0532698 36.6107605,21.9440952 L36.5011474,21.9440952 C36.6107605,21.725746 37.0492127,21.725746 37.2684388,21.5073968 C37.2684388,21.3982222 37.0492127,21.5073968 37.0492127,21.3982222 C37.0492127,21.3982222 37.0492127,21.3982222 37.1588258,21.3982222 L37.0492127,21.3982222 C36.9395997,21.3982222 37.0492127,21.2890476 37.0492127,21.179873 C37.4876649,20.7431746 37.4876649,20.1973016 37.597278,19.6514286 L37.4876649,19.6514286 C36.8299866,20.3064762 35.8434691,20.634 34.9665647,20.8523492 L34.7473386,20.8523492 C34.5281124,20.9615238 33.9800472,20.9615238 33.651208,20.8523492 C33.4319819,20.7431746 33.2127558,20.634 32.9935297,20.3064762 C32.4454644,20.088127 32.0070122,19.7606032 31.4589469,19.542254 C29.9243641,18.996381 28.3897813,18.7780317 26.7455855,18.8872063 C27.4032638,18.4505079 28.2801683,18.4505079 28.9378466,18.2321587 C30.0339772,18.0138095 31.0204947,17.5771111 32.0070122,17.5771111 C31.8973991,17.5771111 31.56856,17.5771111 31.3493338,17.5771111 C30.5820425,17.5771111 29.595525,17.6862857 28.6090075,18.0138095 C27.9513291,18.1229841 27.4032638,18.4505079 26.8551986,18.5596825 C26.4167464,18.6688571 26.3071333,19.1055556 25.8686811,18.996381 L25.8686811,18.8872063 C26.5263594,18.1229841 27.1840377,17.3587619 28.1705552,17.3587619 C29.2666858,17.2495873 30.3628163,17.3587619 31.4589469,17.4679365 C32.2262383,17.4679365 32.9935297,17.6862857 33.7608211,17.9046349 C33.9800472,17.9046349 34.1992733,18.4505079 34.4184994,18.4505079 C34.8569516,18.5596825 35.1857908,18.4505079 35.5146299,18.6688571 C35.5146299,18.5596825 35.5146299,18.4505079 35.5146299,18.2321587 C35.7338561,18.0138095 36.0626952,18.2321587 36.2819213,18.2321587 C36.8299866,18.0138095 35.8434691,17.4679365 35.624243,16.9220635 L35.624243,16.8128889 C36.1723083,17.2495873 36.3915344,17.7954603 37.1588258,18.0138095 C37.3780519,18.1229841 38.2549563,18.2321587 38.1453433,18.0138095 C37.9261172,17.3587619 37.1588258,16.8128889 36.6107605,16.1578413 L36.6107605,15.6119683 C36.5011474,15.6119683 36.5011474,15.6119683 36.5011474,15.5027937 L36.5011474,15.2844444 C36.2819213,15.1752698 36.3915344,14.847746 36.2819213,14.7385714 C36.1723083,14.5202222 36.2819213,13.9743492 36.1723083,13.6468254 C36.0626952,13.210127 36.0626952,12.9917778 35.9530822,12.5550794 C35.8434691,11.4633333 35.5146299,10.4807619 35.4050169,9.60736508 C35.2954038,8.40644444 36.0626952,7.42387302 36.6107605,6.55047619 C37.0492127,5.78625397 37.597278,5.02203175 38.3645694,4.47615873 C38.4741824,3.71193651 39.0222477,3.16606349 39.570313,2.40184127 C40.1183783,1.85596825 40.8856697,1.41926984 41.4337349,1.20092063 C42.2010263,0.218349206 42.9683177,7.75732212e-15 42.9683177,7.75732212e-15 L55.1353669,7.75732212e-15 C55.1353669,7.75732212e-15 55.1353669,7.75732212e-15 55.354593,0.109174603 C55.5738191,0.218349206 56.0122713,0.545873016 56.3411105,0.655047619 C56.7795627,0.873396825 57.327628,1.20092063 57.5468541,1.63761905 C57.6564671,1.74679365 57.7660802,2.18349206 57.6564671,2.40184127 C57.5468541,2.62019048 57.5468541,3.16606349 57.1084019,3.3844127 C56.6699496,3.4935873 56.3411105,3.4935873 55.7930452,3.4935873 C55.5738191,3.4935873 55.2449799,3.4935873 55.0257538,3.3844127 C56.0122713,3.82111111 56.7795627,4.14863492 57.437241,5.02203175 C57.437241,5.13120635 57.6564671,5.13120635 57.9853063,5.13120635 L57.9853063,5.24038095 C57.8756932,5.34955556 57.7660802,5.34955556 57.8756932,5.67707937 L58.3141455,5.67707937 C58.5333716,5.56790476 58.5333716,4.91285714 58.9718238,5.13120635 C59.1910499,5.24038095 59.410276,5.78625397 59.1910499,6.11377778 C58.9718238,6.33212698 58.6429846,6.55047619 58.4237585,6.7688254 C58.4237585,6.878 58.4237585,6.9871746 58.4237585,7.20552381 C58.5333716,7.42387302 58.6429846,7.75139683 58.6429846,7.96974603 C58.7525977,8.40644444 58.8622107,8.95231746 59.0814369,9.27984127 C59.5198891,10.2624127 59.7391152,11.1358095 59.6295021,12.118381 C59.6295021,12.664254 59.410276,13.1009524 59.6295021,13.6468254 C59.7391152,14.1926984 60.0679544,14.4110476 60.2871805,14.9569206 C60.5064066,15.393619 60.8352457,15.6119683 60.9448588,15.9394921 C61.383311,16.5945397 62.0409894,17.1404127 61.7121502,18.0138095 C61.6025371,18.4505079 60.9448588,18.4505079 60.3967935,18.6688571 C59.9583413,18.8872063 60.3967935,19.4330794 60.5064066,19.7606032 C60.7256327,20.3064762 60.0679544,20.7431746 59.7391152,20.8523492 C59.8487282,20.9615238 60.1775674,20.9615238 60.1775674,21.0706984 C60.1775674,21.2890476 60.6160196,21.6165714 60.2871805,21.8349206 C60.0679544,22.271619 59.300663,22.3807937 59.6295021,22.9266667 C59.8487282,23.3633651 59.7391152,23.9092381 59.6295021,24.2367619 C59.5198891,24.7826349 58.9718238,25.0009841 58.5333716,25.2193333 C58.0949194,25.3285079 57.7660802,25.3285079 57.327628,25.2193333 C57.2180149,25.2193333 57.1084019,25.1101587 56.8891758,25.1101587 C55.7930452,25.0009841 54.6969146,24.6734603 53.8200102,24.6734603 C53.6007841,24.6734603 53.1623319,24.7826349 53.0527188,24.8918095 C52.8334927,25.1101587 52.5046535,25.3285079 52.2854274,25.5468571 L52.2854274,25.5468571 L52.1758144,25.6560317 C52.1758144,25.6560317 52.1758144,25.6560317 52.0662013,25.7652063 L52.0662013,25.7652063 C51.9565883,25.9835556 51.6277491,26.2019048 51.518136,26.420254 L51.518136,26.420254 C51.518136,26.420254 51.518136,26.420254 51.518136,26.5294286 C51.2989099,26.966127 51.0796838,27.2936508 51.0796838,27.6211746 C50.6412316,29.149619 50.8604577,30.3505397 51.0796838,30.5688889 C51.1892969,30.6780635 53.1623319,31.2239365 54.4776885,31.8789841 C55.1353669,32.0973333 55.5738191,32.4248571 56.0122713,32.5340317 L30.1435902,32.5340317 C31.3493338,31.7698095 32.4454644,31.3331111 34.1992733,30.4597143 C35.0761777,30.3505397 36.8299866,29.4771429 37.3780519,28.9312698 M27.8417161,24.5642857 C27.732103,24.5642857 27.4032638,24.5642857 27.62249,24.5642857 C27.62249,24.3459365 28.1705552,24.3459365 28.3897813,24.1275873 C28.4993944,24.1275873 28.6090075,24.0184127 28.8282336,24.0184127 C28.9378466,24.1275873 29.0474597,24.1275873 29.2666858,24.2367619 C28.8282336,24.5642857 28.2801683,24.2367619 27.8417161,24.5642857 M18.1957672,23.0358413 L18.1957672,23.0358413 C18.9630586,21.8349206 19.5111239,20.8523492 20.0591891,19.7606032 C20.8264805,19.3239048 21.5937719,18.6688571 22.2514502,18.0138095 C23.3475808,16.9220635 24.4437114,15.8303175 25.759068,15.2844444 C26.3071333,15.1752698 26.8551986,15.1752698 27.4032638,15.2844444 C27.2936508,15.5027937 26.8551986,15.393619 26.6359725,15.7211429 L26.5263594,15.7211429 L26.5263594,15.6119683 C25.8686811,16.2670159 24.9917766,16.5945397 24.4437114,17.3587619 C24.0052591,18.0138095 23.786033,18.8872063 22.9091286,18.996381 C22.6899025,18.996381 22.9091286,18.8872063 22.9091286,18.8872063 C21.2649327,20.088127 19.839963,21.3982222 18.1957672,23.0358413 M23.5668069,18.996381 C23.5668069,19.1055556 23.4571939,19.1055556 23.4571939,19.2147302 C23.4571939,19.3239048 23.3475808,19.3239048 23.2379677,19.4330794 L23.1283547,19.4330794 C23.0187416,19.2147302 23.1283547,18.996381 23.5668069,18.996381 C23.5668069,18.8872063 23.5668069,18.996381 23.5668069,18.996381 M26.4167464,28.2762222 C26.4167464,28.3853968 26.3071333,28.3853968 26.3071333,28.3853968 C26.4167464,28.3853968 26.4167464,28.3853968 26.4167464,28.4945714 C26.3071333,28.603746 26.1975202,28.7129206 25.9782941,28.7129206 C25.9782941,28.7129206 25.9782941,28.7129206 25.8686811,28.7129206 C25.759068,28.8220952 25.759068,28.8220952 25.649455,28.9312698 C25.5398419,28.9312698 25.2110027,28.9312698 25.4302289,28.8220952 C25.5398419,28.7129206 25.649455,28.603746 25.8686811,28.3853968 C25.9782941,28.2762222 25.9782941,28.2762222 26.0879072,28.1670476 L26.1975202,28.057873 C26.0879072,28.1670476 26.4167464,28.1670476 26.4167464,28.2762222 M25.3206158,27.7303492 L25.3206158,27.7303492 C25.1013897,27.8395238 24.7725505,28.1670476 24.6629375,28.2762222 C24.4437114,28.3853968 24.1148722,28.4945714 23.8956461,28.7129206 L23.8956461,28.7129206 C23.8956461,28.7129206 23.8956461,28.7129206 23.786033,28.7129206 C23.5668069,28.8220952 23.3475808,28.9312698 23.1283547,29.2587937 C23.1283547,29.2587937 23.1283547,29.2587937 23.0187416,29.3679683 L23.0187416,29.3679683 L23.0187416,29.3679683 C23.0187416,29.3679683 23.0187416,29.3679683 22.9091286,29.4771429 L22.9091286,29.4771429 L22.9091286,29.4771429 L22.7995155,29.5863175 C22.7995155,29.5863175 22.7995155,29.5863175 22.6899025,29.6954921 L22.5802894,29.6954921 L22.5802894,29.6954921 L22.4706764,29.6954921 C22.4706764,29.6954921 22.4706764,29.6954921 22.3610633,29.6954921 L22.3610633,29.6954921 L22.3610633,29.6954921 C22.2514502,29.6954921 22.2514502,29.8046667 22.1418372,29.8046667 C22.0322241,29.9138413 21.9226111,30.0230159 21.703385,30.2413651 L21.703385,30.2413651 L21.703385,30.2413651 L21.703385,30.2413651 L21.703385,30.2413651 L21.703385,30.2413651 L21.703385,30.2413651 L21.703385,30.2413651 L21.703385,30.2413651 L21.703385,30.2413651 L21.703385,30.2413651 C21.703385,30.2413651 21.703385,30.2413651 21.703385,30.1321905 L21.703385,30.1321905 L21.703385,30.1321905 C21.703385,30.0230159 21.812998,30.0230159 21.812998,29.9138413 L21.812998,29.9138413 C21.812998,29.9138413 21.812998,29.9138413 21.812998,29.8046667 L21.9226111,29.6954921 L21.9226111,29.6954921 C22.0322241,29.5863175 22.0322241,29.5863175 22.0322241,29.4771429 L22.0322241,29.4771429 L22.0322241,29.4771429 C22.0322241,29.4771429 22.0322241,29.3679683 22.1418372,29.3679683 C22.1418372,29.3679683 22.1418372,29.2587937 22.2514502,29.2587937 L22.2514502,29.2587937 L22.2514502,29.2587937 L22.2514502,29.2587937 L22.2514502,29.149619 L22.2514502,29.149619 L22.2514502,29.149619 C22.2514502,29.149619 22.2514502,29.149619 22.2514502,29.0404444 L22.2514502,29.0404444 C22.2514502,29.0404444 22.2514502,29.0404444 22.2514502,28.9312698 L22.2514502,28.9312698 C22.3610633,28.8220952 22.3610633,28.7129206 22.4706764,28.7129206 L22.4706764,28.7129206 C22.3610633,28.7129206 22.3610633,28.8220952 22.2514502,28.8220952 C22.2514502,28.8220952 22.1418372,28.8220952 22.1418372,28.7129206 L22.2514502,28.603746 L22.2514502,28.603746 C22.3610633,28.4945714 22.3610633,28.3853968 22.4706764,28.3853968 C22.5802894,28.3853968 22.5802894,28.2762222 22.5802894,28.2762222 L22.5802894,28.2762222 L22.6899025,28.1670476 L22.6899025,28.1670476 C23.2379677,27.6211746 24.3340983,27.6211746 25.1013897,27.1844762 C25.3206158,27.0753016 25.759068,27.1844762 26.0879072,27.1844762 C26.1975202,27.1844762 26.5263594,27.1844762 26.6359725,27.2936508 C26.1975202,27.0753016 25.649455,27.512 25.3206158,27.7303492 M26.5263594,23.4725397 C26.5263594,23.4725397 26.6359725,23.4725397 26.7455855,23.3633651 L26.1975202,23.3633651 C26.1975202,23.3633651 26.1975202,23.3633651 26.1975202,23.2541905 C25.9782941,23.2541905 25.5398419,23.3633651 25.2110027,23.4725397 C24.7725505,23.5817143 24.4437114,23.9092381 23.8956461,24.0184127 C23.2379677,24.2367619 22.6899025,24.7826349 21.812998,25.1101587 C21.812998,25.1101587 21.812998,25.1101587 21.812998,25.0009841 C21.812998,24.8918095 22.0322241,24.7826349 22.2514502,24.5642857 L22.2514502,24.3459365 C22.7995155,23.6908889 23.4571939,23.2541905 24.0052591,22.7083175 L24.0052591,22.5991429 C24.1148722,22.3807937 24.5533244,22.1624444 24.6629375,21.9440952 C24.6629375,21.8349206 24.8821636,21.5073968 25.3206158,21.3982222 C25.3206158,21.3982222 25.2110027,21.3982222 25.2110027,21.2890476 C24.9917766,21.2890476 24.6629375,21.3982222 24.4437114,21.2890476 C24.5533244,21.179873 24.6629375,21.179873 24.8821636,21.0706984 C24.8821636,21.0706984 24.7725505,21.0706984 24.7725505,20.9615238 C24.7725505,20.8523492 24.8821636,20.7431746 24.9917766,20.7431746 C25.2110027,20.7431746 25.5398419,20.7431746 25.759068,20.5248254 C25.3206158,20.5248254 24.7725505,20.634 24.4437114,20.4156508 C24.6629375,19.6514286 25.2110027,18.8872063 26.0879072,18.5596825 L26.1975202,18.5596825 C26.1975202,18.7780317 26.0879072,19.1055556 25.649455,19.2147302 C26.1975202,19.3239048 26.6359725,19.3239048 27.1840377,19.6514286 C27.1840377,19.7606032 27.0744247,19.6514286 26.9648116,19.6514286 C27.1840377,19.7606032 27.62249,19.6514286 27.9513291,19.8697778 C27.8417161,19.9789524 27.5128769,19.8697778 27.4032638,19.8697778 C29.2666858,20.4156508 31.3493338,20.8523492 32.9935297,22.1624444 C31.678173,22.8174921 30.1435902,23.1450159 28.6090075,23.4725397 C28.4993944,23.4725397 28.3897813,23.4725397 28.0609422,23.4725397 L28.0609422,23.5817143 C27.8417161,23.5817143 27.62249,23.5817143 27.4032638,23.6908889 C27.0744247,23.5817143 26.7455855,23.6908889 26.5263594,23.4725397" id="Fond_2_" fill="#FFFFFF" fill-rule="nonzero"></path>
                    <path d="M37.3780519,28.9312698 C37.8165041,28.4945714 38.0357302,28.2762222 38.4741824,27.8395238 L38.4741824,27.8395238 C39.1318608,27.0753016 39.7895391,26.3110794 40.5568305,25.6560317 C40.7760566,25.4376825 40.9952827,25.2193333 41.2145088,25.1101587 C41.2145088,25.1101587 41.2145088,25.0009841 41.3241219,24.8918095 C41.1048958,25.0009841 40.7760566,25.3285079 40.5568305,25.4376825 C40.5568305,25.4376825 40.4472174,25.4376825 40.5568305,25.3285079 C40.7760566,25.2193333 40.9952827,25.1101587 41.2145088,24.7826349 L41.2145088,24.7826349 C41.2145088,24.7826349 41.2145088,24.7826349 41.2145088,24.6734603 C40.4472174,24.5642857 39.6799261,25.1101587 39.1318608,25.6560317 C39.0222477,25.6560317 38.9126347,25.6560317 38.9126347,25.6560317 C37.9261172,25.874381 37.2684388,26.7477778 36.3915344,27.1844762 L36.3915344,27.0753016 C35.9530822,27.1844762 35.7338561,27.512 35.2954038,27.512 C34.7473386,27.6211746 34.1992733,27.512 33.7608211,27.512 C32.9935297,27.6211746 32.2262383,27.7303492 31.4589469,27.9486984 L31.4589469,27.9486984 C31.0204947,28.057873 30.6916555,28.1670476 30.2532033,28.3853968 L30.2532033,28.3853968 C30.2532033,28.3853968 30.2532033,28.4945714 30.1435902,28.4945714 C30.0339772,28.603746 29.9243641,28.7129206 29.705138,28.9312698 C29.2666858,29.0404444 29.0474597,29.4771429 28.6090075,29.6954921 C28.6090075,29.6954921 28.6090075,29.6954921 28.4993944,29.6954921 C28.2801683,29.9138413 27.8417161,30.3505397 27.5128769,30.6780635 L27.4032638,30.6780635 L27.4032638,30.6780635 L27.4032638,30.6780635 C27.4032638,30.5688889 27.5128769,30.5688889 27.5128769,30.4597143 C27.5128769,30.3505397 27.62249,30.3505397 27.62249,30.2413651 C27.732103,30.1321905 27.732103,30.0230159 27.8417161,29.8046667 C27.8417161,29.8046667 27.8417161,29.8046667 27.8417161,29.6954921 C27.8417161,29.6954921 27.8417161,29.6954921 27.732103,29.6954921 C27.9513291,29.4771429 28.3897813,29.149619 28.8282336,28.9312698 L28.8282336,28.9312698 L28.7186205,28.9312698 L28.8282336,28.8220952 L28.8282336,28.8220952 L28.8282336,28.8220952 C28.7186205,28.8220952 28.6090075,28.9312698 28.6090075,29.0404444 C28.4993944,29.149619 28.3897813,29.4771429 28.0609422,29.4771429 C28.0609422,29.4771429 28.0609422,29.4771429 27.9513291,29.4771429 L27.9513291,29.4771429 L27.9513291,29.4771429 L27.9513291,29.4771429 L27.9513291,29.4771429 L27.9513291,29.4771429 L27.9513291,29.4771429 L27.9513291,29.4771429 C27.9513291,29.4771429 27.9513291,29.4771429 27.9513291,29.3679683 L27.9513291,29.3679683 C27.9513291,29.3679683 27.9513291,29.2587937 28.0609422,29.2587937 L28.0609422,29.2587937 L28.0609422,28.7129206 L28.0609422,28.603746 C28.1705552,28.4945714 28.2801683,28.3853968 28.4993944,28.1670476 L28.4993944,28.1670476 C28.7186205,28.057873 29.0474597,27.9486984 29.1570727,27.7303492 C29.1570727,27.7303492 29.2666858,27.7303492 29.2666858,27.6211746 C28.8282336,27.7303492 28.6090075,27.8395238 28.2801683,28.1670476 L28.1705552,28.1670476 L28.0609422,28.1670476 L28.0609422,28.1670476 C28.0609422,28.057873 28.2801683,28.057873 28.4993944,27.9486984 L28.6090075,27.9486984 C30.6916555,26.420254 33.3223688,26.7477778 35.624243,25.874381 C35.7338561,25.7652063 36.0626952,25.6560317 36.1723083,25.4376825 C36.3915344,25.3285079 36.7203736,25.0009841 37.1588258,24.7826349 C37.7068911,24.3459365 37.9261172,24.0184127 38.2549563,23.2541905 L38.2549563,23.1450159 C37.4876649,23.9092381 36.5011474,24.6734603 35.5146299,25.2193333 C34.1992733,25.874381 32.7743036,25.7652063 31.4589469,25.9835556 C31.4589469,25.874381 31.56856,25.874381 31.678173,25.874381 C31.678173,25.7652063 31.7877861,25.6560317 31.8973991,25.4376825 L32.1166252,25.4376825 C32.1166252,25.4376825 32.1166252,25.3285079 32.2262383,25.3285079 C32.3358513,25.3285079 32.4454644,25.3285079 32.4454644,25.3285079 C32.3358513,25.1101587 31.8973991,25.4376825 31.678173,25.3285079 C31.7877861,25.2193333 31.678173,25.1101587 31.7877861,24.8918095 L32.1166252,24.8918095 C32.1166252,24.7826349 32.2262383,24.6734603 32.2262383,24.6734603 C33.2127558,24.1275873 33.9800472,23.6908889 34.9665647,23.1450159 C34.8569516,23.1450159 34.7473386,23.2541905 34.4184994,23.1450159 C34.5281124,23.1450159 34.4184994,23.0358413 34.5281124,23.0358413 C35.1857908,22.9266667 35.7338561,22.4899683 36.3915344,22.271619 C36.1723083,22.271619 35.9530822,22.3807937 35.7338561,22.271619 C35.8434691,22.271619 35.8434691,22.1624444 36.1723083,22.1624444 L36.1723083,22.0532698 C36.1723083,22.0532698 36.1723083,22.0532698 36.2819213,22.0532698 L36.1723083,22.0532698 C36.1723083,21.9440952 36.3915344,22.0532698 36.6107605,21.9440952 L36.5011474,21.9440952 C36.6107605,21.725746 37.0492127,21.725746 37.2684388,21.5073968 C37.2684388,21.3982222 37.0492127,21.5073968 37.0492127,21.3982222 C37.0492127,21.3982222 37.0492127,21.3982222 37.1588258,21.3982222 L37.0492127,21.3982222 C36.9395997,21.3982222 37.0492127,21.2890476 37.0492127,21.179873 C37.4876649,20.7431746 37.4876649,20.1973016 37.597278,19.6514286 L37.4876649,19.6514286 C36.8299866,20.3064762 35.8434691,20.634 34.9665647,20.8523492 L34.7473386,20.8523492 C34.5281124,20.9615238 33.9800472,20.9615238 33.651208,20.8523492 C33.4319819,20.7431746 33.2127558,20.634 32.9935297,20.3064762 C32.4454644,20.088127 32.0070122,19.7606032 31.4589469,19.542254 C29.9243641,18.996381 28.3897813,18.7780317 26.7455855,18.8872063 C27.4032638,18.4505079 28.2801683,18.4505079 28.9378466,18.2321587 C30.0339772,18.0138095 31.0204947,17.5771111 32.0070122,17.5771111 C31.8973991,17.5771111 31.56856,17.5771111 31.3493338,17.5771111 C30.5820425,17.5771111 29.595525,17.6862857 28.6090075,18.0138095 C27.9513291,18.1229841 27.4032638,18.4505079 26.8551986,18.5596825 C26.4167464,18.6688571 26.3071333,19.1055556 25.8686811,18.996381 L25.8686811,18.8872063 C26.5263594,18.1229841 27.1840377,17.3587619 28.1705552,17.3587619 C29.2666858,17.2495873 30.3628163,17.3587619 31.4589469,17.4679365 C32.2262383,17.4679365 32.9935297,17.6862857 33.7608211,17.9046349 C33.9800472,17.9046349 34.1992733,18.4505079 34.4184994,18.4505079 C34.8569516,18.5596825 35.1857908,18.4505079 35.5146299,18.6688571 C35.5146299,18.5596825 35.5146299,18.4505079 35.5146299,18.2321587 C35.7338561,18.0138095 36.0626952,18.2321587 36.2819213,18.2321587 C36.8299866,18.0138095 35.8434691,17.4679365 35.624243,16.9220635 L35.624243,16.8128889 C36.1723083,17.2495873 36.3915344,17.7954603 37.1588258,18.0138095 C37.3780519,18.1229841 38.2549563,18.2321587 38.1453433,18.0138095 C37.9261172,17.3587619 37.1588258,16.8128889 36.6107605,16.1578413 L36.6107605,15.6119683 C36.5011474,15.6119683 36.5011474,15.6119683 36.5011474,15.5027937 L36.5011474,15.2844444 C36.2819213,15.1752698 36.3915344,14.847746 36.2819213,14.7385714 C36.1723083,14.5202222 36.2819213,13.9743492 36.1723083,13.6468254 C36.0626952,13.210127 36.0626952,12.9917778 35.9530822,12.5550794 C35.8434691,11.4633333 35.5146299,10.4807619 35.4050169,9.60736508 C35.2954038,8.40644444 36.0626952,7.42387302 36.6107605,6.55047619 C37.0492127,5.78625397 37.597278,5.02203175 38.3645694,4.47615873 C38.4741824,3.71193651 39.0222477,3.16606349 39.570313,2.40184127 C40.1183783,1.85596825 40.8856697,1.41926984 41.4337349,1.20092063 C42.2010263,0.218349206 42.9683177,7.75732212e-15 42.9683177,7.75732212e-15 L0,7.75732212e-15 L0,32.752381 L30.2532033,32.752381 C31.4589469,31.9881587 32.5550775,31.5514603 34.3088863,30.6780635 C35.0761777,30.3505397 36.8299866,29.4771429 37.3780519,28.9312698 M27.8417161,24.5642857 C27.732103,24.5642857 27.4032638,24.5642857 27.62249,24.5642857 C27.62249,24.3459365 28.1705552,24.3459365 28.3897813,24.1275873 C28.4993944,24.1275873 28.6090075,24.0184127 28.8282336,24.0184127 C28.9378466,24.1275873 29.0474597,24.1275873 29.2666858,24.2367619 C28.8282336,24.5642857 28.2801683,24.2367619 27.8417161,24.5642857 M18.4149933,23.0358413 C18.4149933,23.0358413 18.1957672,23.0358413 18.4149933,23.0358413 C19.1822847,21.8349206 19.73035,20.8523492 20.2784152,19.7606032 C21.0457066,19.3239048 21.812998,18.6688571 22.4706764,18.0138095 C23.5668069,16.9220635 24.6629375,15.8303175 25.9782941,15.2844444 C26.5263594,15.1752698 27.0744247,15.1752698 27.62249,15.2844444 C27.5128769,15.5027937 27.0744247,15.393619 26.8551986,15.7211429 L26.6359725,15.7211429 L26.6359725,15.6119683 C25.9782941,16.2670159 25.1013897,16.5945397 24.5533244,17.3587619 C24.1148722,18.0138095 23.8956461,18.8872063 23.0187416,18.996381 C22.7995155,18.996381 23.0187416,18.8872063 23.0187416,18.8872063 C21.2649327,20.088127 19.839963,21.3982222 18.4149933,23.0358413 M23.5668069,18.996381 C23.5668069,19.1055556 23.4571939,19.1055556 23.4571939,19.2147302 C23.4571939,19.3239048 23.3475808,19.3239048 23.2379677,19.4330794 L23.1283547,19.4330794 C23.0187416,19.2147302 23.1283547,18.996381 23.5668069,18.996381 C23.5668069,18.8872063 23.5668069,18.996381 23.5668069,18.996381 M26.4167464,28.2762222 C26.4167464,28.3853968 26.3071333,28.3853968 26.3071333,28.3853968 C26.4167464,28.3853968 26.4167464,28.3853968 26.4167464,28.4945714 C26.3071333,28.603746 26.1975202,28.7129206 25.9782941,28.7129206 C25.9782941,28.7129206 25.9782941,28.7129206 25.8686811,28.7129206 C25.759068,28.8220952 25.759068,28.8220952 25.649455,28.9312698 C25.5398419,28.9312698 25.2110027,28.9312698 25.4302289,28.8220952 C25.5398419,28.7129206 25.649455,28.603746 25.8686811,28.3853968 C25.9782941,28.2762222 25.9782941,28.2762222 26.0879072,28.1670476 L26.1975202,28.057873 C26.0879072,28.1670476 26.4167464,28.1670476 26.4167464,28.2762222 M25.3206158,27.7303492 L25.3206158,27.7303492 C25.1013897,27.8395238 24.7725505,28.1670476 24.6629375,28.2762222 C24.4437114,28.3853968 24.1148722,28.4945714 23.8956461,28.7129206 L23.8956461,28.7129206 C23.8956461,28.7129206 23.8956461,28.7129206 23.786033,28.7129206 C23.5668069,28.8220952 23.3475808,28.9312698 23.1283547,29.2587937 C23.1283547,29.2587937 23.1283547,29.2587937 23.0187416,29.3679683 L23.0187416,29.3679683 L23.0187416,29.3679683 C23.0187416,29.3679683 23.0187416,29.3679683 22.9091286,29.4771429 L22.9091286,29.4771429 L22.9091286,29.4771429 L22.7995155,29.5863175 C22.7995155,29.5863175 22.7995155,29.5863175 22.6899025,29.6954921 L22.5802894,29.6954921 L22.5802894,29.6954921 L22.4706764,29.6954921 C22.4706764,29.6954921 22.4706764,29.6954921 22.3610633,29.6954921 L22.3610633,29.6954921 L22.3610633,29.6954921 C22.2514502,29.6954921 22.2514502,29.8046667 22.1418372,29.8046667 C22.0322241,29.9138413 21.9226111,30.0230159 21.703385,30.2413651 L21.703385,30.2413651 L21.703385,30.2413651 L21.703385,30.2413651 L21.703385,30.2413651 L21.703385,30.2413651 L21.703385,30.2413651 L21.703385,30.2413651 L21.703385,30.2413651 L21.703385,30.2413651 L21.703385,30.2413651 C21.703385,30.2413651 21.703385,30.2413651 21.703385,30.1321905 L21.703385,30.1321905 L21.703385,30.1321905 C21.703385,30.0230159 21.812998,30.0230159 21.812998,29.9138413 L21.812998,29.9138413 C21.812998,29.9138413 21.812998,29.9138413 21.812998,29.8046667 L21.9226111,29.6954921 L21.9226111,29.6954921 C22.0322241,29.5863175 22.0322241,29.5863175 22.0322241,29.4771429 L22.0322241,29.4771429 L22.0322241,29.4771429 C22.0322241,29.4771429 22.0322241,29.3679683 22.1418372,29.3679683 C22.1418372,29.3679683 22.1418372,29.2587937 22.2514502,29.2587937 L22.2514502,29.2587937 L22.2514502,29.2587937 L22.2514502,29.2587937 L22.2514502,29.149619 L22.2514502,29.149619 L22.2514502,29.149619 C22.2514502,29.149619 22.2514502,29.149619 22.2514502,29.0404444 L22.2514502,29.0404444 C22.2514502,29.0404444 22.2514502,29.0404444 22.2514502,28.9312698 L22.2514502,28.9312698 C22.3610633,28.8220952 22.3610633,28.7129206 22.4706764,28.7129206 L22.4706764,28.7129206 C22.3610633,28.7129206 22.3610633,28.8220952 22.2514502,28.8220952 C22.2514502,28.8220952 22.1418372,28.8220952 22.1418372,28.7129206 L22.2514502,28.603746 L22.2514502,28.603746 C22.3610633,28.4945714 22.3610633,28.3853968 22.4706764,28.3853968 C22.5802894,28.3853968 22.5802894,28.2762222 22.5802894,28.2762222 L22.5802894,28.2762222 L22.6899025,28.1670476 L22.6899025,28.1670476 C23.2379677,27.6211746 24.3340983,27.6211746 25.1013897,27.1844762 C25.3206158,27.0753016 25.759068,27.1844762 26.0879072,27.1844762 C26.1975202,27.1844762 26.5263594,27.1844762 26.6359725,27.2936508 C26.1975202,27.0753016 25.8686811,27.512 25.3206158,27.7303492 M26.5263594,23.4725397 C26.5263594,23.4725397 26.6359725,23.4725397 26.7455855,23.3633651 L26.1975202,23.3633651 C26.1975202,23.3633651 26.1975202,23.3633651 26.1975202,23.2541905 C25.9782941,23.2541905 25.5398419,23.3633651 25.2110027,23.4725397 C24.7725505,23.5817143 24.4437114,23.9092381 23.8956461,24.0184127 C23.2379677,24.2367619 22.6899025,24.7826349 21.812998,25.1101587 C21.812998,25.1101587 21.812998,25.1101587 21.812998,25.0009841 C21.812998,24.8918095 22.0322241,24.7826349 22.2514502,24.5642857 L22.2514502,24.3459365 C22.7995155,23.6908889 23.4571939,23.2541905 24.0052591,22.7083175 L24.0052591,22.5991429 C24.1148722,22.3807937 24.5533244,22.1624444 24.6629375,21.9440952 C24.6629375,21.8349206 24.8821636,21.5073968 25.3206158,21.3982222 C25.3206158,21.3982222 25.2110027,21.3982222 25.2110027,21.2890476 C24.9917766,21.2890476 24.6629375,21.3982222 24.4437114,21.2890476 C24.5533244,21.179873 24.6629375,21.179873 24.8821636,21.0706984 C24.8821636,21.0706984 24.7725505,21.0706984 24.7725505,20.9615238 C24.7725505,20.8523492 24.8821636,20.7431746 24.9917766,20.7431746 C25.2110027,20.7431746 25.5398419,20.7431746 25.759068,20.5248254 C25.3206158,20.5248254 24.7725505,20.634 24.4437114,20.4156508 C24.6629375,19.6514286 25.2110027,18.8872063 26.0879072,18.5596825 L26.1975202,18.5596825 C26.1975202,18.7780317 26.0879072,19.1055556 25.649455,19.2147302 C26.1975202,19.3239048 26.6359725,19.3239048 27.1840377,19.6514286 C27.1840377,19.7606032 27.0744247,19.6514286 26.9648116,19.6514286 C27.1840377,19.7606032 27.62249,19.6514286 27.9513291,19.8697778 C27.8417161,19.9789524 27.5128769,19.8697778 27.4032638,19.8697778 C29.2666858,20.4156508 31.3493338,20.8523492 32.9935297,22.1624444 C31.678173,22.8174921 30.1435902,23.1450159 28.6090075,23.4725397 C28.4993944,23.4725397 28.3897813,23.4725397 28.0609422,23.4725397 L28.0609422,23.5817143 C27.8417161,23.5817143 27.62249,23.5817143 27.4032638,23.6908889 C27.0744247,23.5817143 26.7455855,23.6908889 26.5263594,23.4725397" id="Rouge_1_" fill="#000091" fill-rule="nonzero"></path>
                    <path d="M90.6499968,1.55146442e-14 L55.1353669,1.55146442e-14 C55.1353669,1.55146442e-14 55.1353669,1.55146442e-14 55.354593,0.109174603 C55.5738191,0.218349206 56.0122713,0.545873016 56.3411105,0.655047619 C56.7795627,0.873396825 57.327628,1.20092063 57.5468541,1.63761905 C57.6564671,1.74679365 57.7660802,2.18349206 57.6564671,2.40184127 C57.5468541,2.62019048 57.5468541,3.16606349 57.1084019,3.3844127 C56.6699496,3.4935873 56.3411105,3.4935873 55.7930452,3.4935873 C55.5738191,3.4935873 55.2449799,3.4935873 55.0257538,3.3844127 C56.0122713,3.82111111 56.7795627,4.14863492 57.437241,5.02203175 C57.437241,5.13120635 57.6564671,5.13120635 57.9853063,5.13120635 L57.9853063,5.24038095 C57.8756932,5.34955556 57.7660802,5.34955556 57.8756932,5.67707937 L58.3141455,5.67707937 C58.5333716,5.56790476 58.5333716,4.91285714 58.9718238,5.13120635 C59.1910499,5.24038095 59.410276,5.78625397 59.1910499,6.11377778 C58.9718238,6.33212698 58.6429846,6.55047619 58.4237585,6.7688254 C58.4237585,6.878 58.4237585,6.9871746 58.4237585,7.20552381 C58.5333716,7.42387302 58.6429846,7.75139683 58.6429846,7.96974603 C58.7525977,8.40644444 58.8622107,8.95231746 59.0814369,9.27984127 C59.5198891,10.2624127 59.7391152,11.1358095 59.6295021,12.118381 C59.6295021,12.664254 59.410276,13.1009524 59.6295021,13.6468254 C59.7391152,14.1926984 60.0679544,14.4110476 60.2871805,14.9569206 C60.5064066,15.393619 60.8352457,15.6119683 60.9448588,15.9394921 C61.383311,16.5945397 62.0409894,17.1404127 61.7121502,18.0138095 C61.6025371,18.4505079 60.9448588,18.4505079 60.3967935,18.6688571 C59.9583413,18.8872063 60.3967935,19.4330794 60.5064066,19.7606032 C60.7256327,20.3064762 60.0679544,20.7431746 59.7391152,20.8523492 C59.8487282,20.9615238 60.1775674,20.9615238 60.1775674,21.0706984 C60.1775674,21.2890476 60.6160196,21.6165714 60.2871805,21.8349206 C60.0679544,22.271619 59.300663,22.3807937 59.6295021,22.9266667 C59.8487282,23.3633651 59.7391152,23.9092381 59.6295021,24.2367619 C59.5198891,24.7826349 58.9718238,25.0009841 58.5333716,25.2193333 C58.0949194,25.3285079 57.7660802,25.3285079 57.327628,25.2193333 C57.2180149,25.2193333 57.1084019,25.1101587 56.8891758,25.1101587 C55.7930452,25.0009841 54.6969146,24.6734603 53.8200102,24.6734603 C53.6007841,24.6734603 53.1623319,24.7826349 53.0527188,24.8918095 C52.8334927,25.1101587 52.5046535,25.3285079 52.2854274,25.5468571 L52.2854274,25.5468571 L52.1758144,25.6560317 C52.1758144,25.6560317 52.1758144,25.6560317 52.0662013,25.7652063 L52.0662013,25.7652063 C51.9565883,25.9835556 51.6277491,26.2019048 51.518136,26.420254 L51.518136,26.420254 C51.518136,26.420254 51.518136,26.420254 51.518136,26.5294286 C51.2989099,26.966127 51.0796838,27.2936508 51.0796838,27.6211746 C50.6412316,29.149619 50.8604577,30.3505397 51.0796838,30.5688889 C51.1892969,30.6780635 53.1623319,31.2239365 54.4776885,31.8789841 C55.1353669,32.0973333 55.5738191,32.4248571 56.0122713,32.5340317 L90.8692229,32.5340317 L90.8692229,1.55146442e-14 L90.6499968,1.55146442e-14 Z" id="Bleu_1_" fill="#E1000F" fill-rule="nonzero"></path>
                    <path d="M57.2180149,12.0092063 C57.437241,12.0092063 57.8756932,12.0092063 57.8756932,12.118381 C57.7660802,12.664254 57.1084019,12.7734286 56.6699496,13.210127 L56.5603366,13.210127 C56.4507235,13.3193016 56.4507235,13.6468254 56.3411105,13.6468254 C56.2314974,13.6468254 55.9026583,13.6468254 55.7930452,13.6468254 C56.0122713,13.8651746 56.3411105,14.0835238 56.7795627,14.0835238 C56.7795627,14.0835238 56.8891758,14.1926984 56.8891758,14.301873 C56.8891758,14.301873 56.8891758,14.301873 56.9987888,14.301873 L57.1084019,14.301873 L57.1084019,14.5202222 C56.9987888,14.7385714 56.5603366,14.6293968 56.3411105,14.6293968 C56.8891758,14.7385714 57.327628,14.7385714 57.8756932,14.6293968 C58.3141455,14.5202222 57.8756932,13.8651746 58.0949194,13.5376508 C57.9853063,13.5376508 58.0949194,13.4284762 57.9853063,13.4284762 C58.0949194,13.3193016 58.2045324,13.210127 58.4237585,12.9917778 C58.5333716,12.9917778 58.6429846,12.9917778 58.8622107,12.8826032 C58.8622107,12.7734286 58.6429846,12.7734286 58.7525977,12.664254 C59.1910499,12.4459048 59.410276,12.0092063 59.300663,11.6816825 C59.300663,11.5725079 58.7525977,11.5725079 58.5333716,11.4633333 C58.3141455,11.3541587 57.8756932,11.4633333 57.437241,11.4633333 C57.2180149,11.4633333 56.7795627,11.5725079 56.4507235,11.6816825 C55.6834321,11.7908571 55.354593,12.118381 54.9161408,12.2275556 C55.354593,12.118381 55.6834321,12.0092063 56.2314974,11.7908571 C56.5603366,12.0092063 56.8891758,11.7908571 57.2180149,12.0092063" id="Yeux_1_" fill="#9C9B9B" fill-rule="nonzero"></path>
                </g>
            </g>
            <path d="M313.218,38.402 L313.218,31.03 L316.144,31.03 L316.144,28.826 L313.218,28.826 L313.218,27.762 C313.218,27.3313333 313.344667,26.983 313.598,26.717 C313.851333,26.451 314.168,26.318 314.548,26.318 C314.801333,26.318 315.016667,26.3591667 315.194,26.4415 C315.371333,26.5238333 315.523333,26.641 315.65,26.793 L315.65,26.793 L317.132,25.026 C316.815333,24.7473333 316.435333,24.532 315.992,24.38 C315.548667,24.228 315.061,24.152 314.529,24.152 C313.946333,24.152 313.423833,24.247 312.9615,24.437 C312.499167,24.627 312.1065,24.8866667 311.7835,25.216 C311.4605,25.5453333 311.2135,25.9348333 311.0425,26.3845 C310.8715,26.8341667 310.786,27.3123333 310.786,27.819 L310.786,27.819 L310.786,28.826 L309,28.826 L309,31.03 L310.786,31.03 L310.786,38.402 L313.218,38.402 Z M321.916,38.782 C322.536667,38.782 323.090833,38.6901667 323.5785,38.5065 C324.066167,38.3228333 324.5,38.0663333 324.88,37.737 L324.88,37.737 L324.88,38.402 L327.312,38.402 L327.312,24.152 L324.88,24.152 L324.88,29.491 C324.5,29.1616667 324.066167,28.9051667 323.5785,28.7215 C323.090833,28.5378333 322.536667,28.446 321.916,28.446 C321.168667,28.446 320.491,28.5853333 319.883,28.864 C319.275,29.1426667 318.762,29.5163333 318.344,29.985 C317.926,30.4536667 317.606167,31.0015 317.3845,31.6285 C317.162833,32.2555 317.052,32.9173333 317.052,33.614 C317.052,34.3106667 317.162833,34.9725 317.3845,35.5995 C317.606167,36.2265 317.926,36.7743333 318.344,37.243 C318.762,37.7116667 319.275,38.0853333 319.883,38.364 C320.491,38.6426667 321.168667,38.782 321.916,38.782 Z M322.258,36.502 C321.447333,36.502 320.798167,36.2296667 320.3105,35.685 C319.822833,35.1403333 319.579,34.45 319.579,33.614 C319.579,32.778 319.822833,32.0876667 320.3105,31.543 C320.798167,30.9983333 321.447333,30.726 322.258,30.726 C322.802667,30.726 323.296667,30.8463333 323.74,31.087 C324.183333,31.3276667 324.563333,31.6823333 324.88,32.151 L324.88,32.151 L324.88,35.077 C324.563333,35.5456667 324.1865,35.9003333 323.7495,36.141 C323.3125,36.3816667 322.815333,36.502 322.258,36.502 Z M331.716,27.154 C332.146667,27.154 332.514,26.9988333 332.818,26.6885 C333.122,26.3781667 333.274,26.0076667 333.274,25.577 C333.274,25.1463333 333.122,24.7758333 332.818,24.4655 C332.514,24.1551667 332.146667,24 331.716,24 C331.285333,24 330.914833,24.1551667 330.6045,24.4655 C330.294167,24.7758333 330.139,25.1463333 330.139,25.577 C330.139,26.0076667 330.294167,26.3781667 330.6045,26.6885 C330.914833,26.9988333 331.285333,27.154 331.716,27.154 Z M332.913,38.402 L332.913,28.826 L330.5,28.826 L330.5,38.402 L332.913,38.402 Z M337.241,38.63 C337.684333,38.63 338.070667,38.4653333 338.4,38.136 C338.729333,37.8066667 338.894,37.4203333 338.894,36.977 C338.894,36.5336667 338.729333,36.1473333 338.4,35.818 C338.070667,35.4886667 337.684333,35.324 337.241,35.324 C336.785,35.324 336.392333,35.4886667 336.063,35.818 C335.733667,36.1473333 335.569,36.5336667 335.569,36.977 C335.569,37.4203333 335.733667,37.8066667 336.063,38.136 C336.392333,38.4653333 336.785,38.63 337.241,38.63 Z M342.747,27.154 C343.177667,27.154 343.545,26.9988333 343.849,26.6885 C344.153,26.3781667 344.305,26.0076667 344.305,25.577 C344.305,25.1463333 344.153,24.7758333 343.849,24.4655 C343.545,24.1551667 343.177667,24 342.747,24 C342.316333,24 341.945833,24.1551667 341.6355,24.4655 C341.325167,24.7758333 341.17,25.1463333 341.17,25.577 C341.17,26.0076667 341.325167,26.3781667 341.6355,26.6885 C341.945833,26.9988333 342.316333,27.154 342.747,27.154 Z M343.944,38.402 L343.944,28.826 L341.531,28.826 L341.531,38.402 L343.944,38.402 Z M349.545,38.402 L349.545,32.151 C349.722333,31.847 349.985167,31.5335 350.3335,31.2105 C350.681833,30.8875 351.16,30.726 351.768,30.726 C352.350667,30.726 352.809833,30.9128333 353.1455,31.2865 C353.481167,31.6601667 353.649,32.1636667 353.649,32.797 L353.649,32.797 L353.649,38.402 L356.1,38.402 L356.1,32.702 C356.1,31.9926667 356.001833,31.372 355.8055,30.84 C355.609167,30.308 355.343167,29.8646667 355.0075,29.51 C354.671833,29.1553333 354.279167,28.8893333 353.8295,28.712 C353.379833,28.5346667 352.895333,28.446 352.376,28.446 C351.742667,28.446 351.194833,28.5568333 350.7325,28.7785 C350.270167,29.0001667 349.874333,29.2693333 349.545,29.586 L349.545,29.586 L349.545,28.826 L347.132,28.826 L347.132,38.402 L349.545,38.402 Z M363.734,38.782 C364.608,38.782 365.390167,38.6046667 366.0805,38.25 C366.770833,37.8953333 367.337667,37.4266667 367.781,36.844 L367.781,36.844 L365.862,35.381 C365.634,35.7103333 365.3395,35.9795 364.9785,36.1885 C364.6175,36.3975 364.202667,36.502 363.734,36.502 C362.936,36.502 362.274167,36.2296667 361.7485,35.685 C361.222833,35.1403333 360.96,34.45 360.96,33.614 C360.96,32.778 361.219667,32.0876667 361.739,31.543 C362.258333,30.9983333 362.910667,30.726 363.696,30.726 C364.19,30.726 364.6175,30.8305 364.9785,31.0395 C365.3395,31.2485 365.634,31.5176667 365.862,31.847 L365.862,31.847 L367.781,30.384 C367.337667,29.8013333 366.770833,29.3326667 366.0805,28.978 C365.390167,28.6233333 364.608,28.446 363.734,28.446 C362.910667,28.446 362.169667,28.5853333 361.511,28.864 C360.852333,29.1426667 360.298167,29.5163333 359.8485,29.985 C359.398833,30.4536667 359.053667,31.0015 358.813,31.6285 C358.572333,32.2555 358.452,32.9173333 358.452,33.614 C358.452,34.3106667 358.572333,34.9725 358.813,35.5995 C359.053667,36.2265 359.398833,36.7743333 359.8485,37.243 C360.298167,37.7116667 360.852333,38.0853333 361.511,38.364 C362.169667,38.6426667 362.910667,38.782 363.734,38.782 Z M372.299,38.402 L372.299,24.152 L369.886,24.152 L369.886,38.402 L372.299,38.402 Z M379.743,38.782 C381.136333,38.782 382.232,38.3671667 383.03,37.5375 C383.828,36.7078333 384.227,35.5773333 384.227,34.146 L384.227,34.146 L384.227,28.826 L381.795,28.826 L381.795,34.26 C381.795,34.944 381.617667,35.4886667 381.263,35.894 C380.908333,36.2993333 380.408,36.502 379.762,36.502 C379.103333,36.502 378.596667,36.2993333 378.242,35.894 C377.887333,35.4886667 377.71,34.944 377.71,34.26 L377.71,34.26 L377.71,28.826 L375.278,28.826 L375.278,34.146 C375.278,35.5773333 375.673833,36.7078333 376.4655,37.5375 C377.257167,38.3671667 378.349667,38.782 379.743,38.782 Z M390.132,38.782 C390.575333,38.782 391.006,38.7123333 391.424,38.573 C391.842,38.4336667 392.209333,38.2341667 392.526,37.9745 C392.842667,37.7148333 393.096,37.3918333 393.286,37.0055 C393.476,36.6191667 393.577333,36.1726667 393.59,35.666 C393.59,34.8173333 393.355667,34.1871667 392.887,33.7755 C392.418333,33.3638333 391.9085,33.044 391.3575,32.816 C390.8065,32.588 390.296667,32.379 389.828,32.189 C389.359333,31.999 389.125,31.7013333 389.125,31.296 C389.125,31.03 389.22,30.8178333 389.41,30.6595 C389.6,30.5011667 389.872333,30.422 390.227,30.422 C390.607,30.422 390.955333,30.5265 391.272,30.7355 C391.588667,30.9445 391.867333,31.2073333 392.108,31.524 L392.108,31.524 L393.723,30.08 C393.368333,29.6113333 392.8775,29.2218333 392.2505,28.9115 C391.6235,28.6011667 390.942667,28.446 390.208,28.446 C389.22,28.446 388.406167,28.7278333 387.7665,29.2915 C387.126833,29.8551667 386.807,30.555 386.807,31.391 C386.807,32.2523333 387.041333,32.8888333 387.51,33.3005 C387.978667,33.7121667 388.4885,34.0351667 389.0395,34.2695 C389.5905,34.5038333 390.100333,34.716 390.569,34.906 C391.037667,35.096 391.272,35.4 391.272,35.818 C391.272,36.0966667 391.170667,36.331 390.968,36.521 C390.765333,36.711 390.474,36.806 390.094,36.806 C389.638,36.806 389.2295,36.6856667 388.8685,36.445 C388.5075,36.2043333 388.181333,35.9003333 387.89,35.533 L387.89,35.533 L386.294,37.015 C386.75,37.5596667 387.2915,37.9903333 387.9185,38.307 C388.5455,38.6236667 389.283333,38.782 390.132,38.782 Z M397.329,27.154 C397.759667,27.154 398.127,26.9988333 398.431,26.6885 C398.735,26.3781667 398.887,26.0076667 398.887,25.577 C398.887,25.1463333 398.735,24.7758333 398.431,24.4655 C398.127,24.1551667 397.759667,24 397.329,24 C396.898333,24 396.527833,24.1551667 396.2175,24.4655 C395.907167,24.7758333 395.752,25.1463333 395.752,25.577 C395.752,26.0076667 395.907167,26.3781667 396.2175,26.6885 C396.527833,26.9988333 396.898333,27.154 397.329,27.154 Z M398.526,38.402 L398.526,28.826 L396.113,28.826 L396.113,38.402 L398.526,38.402 Z M406.274,38.782 C407.046667,38.782 407.756,38.6458333 408.402,38.3735 C409.048,38.1011667 409.602167,37.7338333 410.0645,37.2715 C410.526833,36.8091667 410.884667,36.2613333 411.138,35.628 C411.391333,34.9946667 411.518,34.3233333 411.518,33.614 C411.518,32.9046667 411.391333,32.2333333 411.138,31.6 C410.884667,30.9666667 410.526833,30.4188333 410.0645,29.9565 C409.602167,29.4941667 409.048,29.1268333 408.402,28.8545 C407.756,28.5821667 407.046667,28.446 406.274,28.446 C405.501333,28.446 404.792,28.5821667 404.146,28.8545 C403.5,29.1268333 402.945833,29.4941667 402.4835,29.9565 C402.021167,30.4188333 401.663333,30.9666667 401.41,31.6 C401.156667,32.2333333 401.03,32.9046667 401.03,33.614 C401.03,34.3233333 401.156667,34.9946667 401.41,35.628 C401.663333,36.2613333 402.021167,36.8091667 402.4835,37.2715 C402.945833,37.7338333 403.5,38.1011667 404.146,38.3735 C404.792,38.6458333 405.501333,38.782 406.274,38.782 Z M406.312,36.502 C405.514,36.502 404.852167,36.2296667 404.3265,35.685 C403.800833,35.1403333 403.538,34.45 403.538,33.614 C403.538,32.778 403.800833,32.0876667 404.3265,31.543 C404.852167,30.9983333 405.514,30.726 406.312,30.726 C407.072,30.726 407.711667,30.9983333 408.231,31.543 C408.750333,32.0876667 409.01,32.778 409.01,33.614 C409.01,34.4373333 408.750333,35.1245 408.231,35.6755 C407.711667,36.2265 407.072,36.502 406.312,36.502 Z M416.435,38.402 L416.435,32.151 C416.612333,31.847 416.875167,31.5335 417.2235,31.2105 C417.571833,30.8875 418.05,30.726 418.658,30.726 C419.240667,30.726 419.699833,30.9128333 420.0355,31.2865 C420.371167,31.6601667 420.539,32.1636667 420.539,32.797 L420.539,32.797 L420.539,38.402 L422.99,38.402 L422.99,32.702 C422.99,31.9926667 422.891833,31.372 422.6955,30.84 C422.499167,30.308 422.233167,29.8646667 421.8975,29.51 C421.561833,29.1553333 421.169167,28.8893333 420.7195,28.712 C420.269833,28.5346667 419.785333,28.446 419.266,28.446 C418.632667,28.446 418.084833,28.5568333 417.6225,28.7785 C417.160167,29.0001667 416.764333,29.2693333 416.435,29.586 L416.435,29.586 L416.435,28.826 L414.022,28.826 L414.022,38.402 L416.435,38.402 Z M427.166,38.63 C427.609333,38.63 427.995667,38.4653333 428.325,38.136 C428.654333,37.8066667 428.819,37.4203333 428.819,36.977 C428.819,36.5336667 428.654333,36.1473333 428.325,35.818 C427.995667,35.4886667 427.609333,35.324 427.166,35.324 C426.71,35.324 426.317333,35.4886667 425.988,35.818 C425.658667,36.1473333 425.494,36.5336667 425.494,36.977 C425.494,37.4203333 425.658667,37.8066667 425.988,38.136 C426.317333,38.4653333 426.71,38.63 427.166,38.63 Z M436.681,38.782 C437.428333,38.782 438.106,38.6426667 438.714,38.364 C439.322,38.0853333 439.841333,37.7116667 440.272,37.243 C440.702667,36.7743333 441.038333,36.2265 441.279,35.5995 C441.519667,34.9725 441.64,34.3106667 441.64,33.614 C441.64,32.9173333 441.519667,32.2555 441.279,31.6285 C441.038333,31.0015 440.702667,30.4536667 440.272,29.985 C439.841333,29.5163333 439.322,29.1426667 438.714,28.864 C438.106,28.5853333 437.428333,28.446 436.681,28.446 C435.946333,28.446 435.2655,28.5916667 434.6385,28.883 C434.0115,29.1743333 433.47,29.5923333 433.014,30.137 L433.014,30.137 L433.014,24.152 L431.893,24.152 L431.893,38.402 L433.014,38.402 L433.014,37.091 C433.47,37.6356667 434.0115,38.0536667 434.6385,38.345 C435.2655,38.6363333 435.946333,38.782 436.681,38.782 Z M436.586,37.718 C435.864,37.718 435.1895,37.547 434.5625,37.205 C433.9355,36.863 433.419333,36.369 433.014,35.723 L433.014,35.723 L433.014,31.505 C433.406667,30.859 433.919667,30.365 434.553,30.023 C435.186333,29.681 435.864,29.51 436.586,29.51 C437.156,29.51 437.6785,29.6176667 438.1535,29.833 C438.6285,30.0483333 439.033833,30.3428333 439.3695,30.7165 C439.705167,31.0901667 439.968,31.5271667 440.158,32.0275 C440.348,32.5278333 440.443,33.0566667 440.443,33.614 C440.443,34.1713333 440.348,34.7001667 440.158,35.2005 C439.968,35.7008333 439.705167,36.1378333 439.3695,36.5115 C439.033833,36.8851667 438.6285,37.1796667 438.1535,37.395 C437.6785,37.6103333 437.156,37.718 436.586,37.718 Z M449.179,38.782 C450.053,38.782 450.835167,38.6046667 451.5255,38.25 C452.215833,37.8953333 452.776333,37.4203333 453.207,36.825 L453.207,36.825 L452.352,36.141 C451.997333,36.635 451.550833,37.0276667 451.0125,37.319 C450.474167,37.6103333 449.869333,37.756 449.198,37.756 C448.602667,37.756 448.058,37.6483333 447.564,37.433 C447.07,37.2176667 446.645667,36.9263333 446.291,36.559 C445.936333,36.1916667 445.660833,35.7578333 445.4645,35.2575 C445.268167,34.7571667 445.17,34.222 445.17,33.652 L445.17,33.652 L445.17,33.329 L452.903,33.329 C452.928333,33.215 452.947333,33.0883333 452.96,32.949 C452.972667,32.8096667 452.979,32.6703333 452.979,32.531 C452.979,31.9483333 452.880833,31.4068333 452.6845,30.9065 C452.488167,30.4061667 452.206333,29.9755 451.839,29.6145 C451.471667,29.2535 451.028333,28.9685 450.509,28.7595 C449.989667,28.5505 449.413333,28.446 448.78,28.446 C448.070667,28.446 447.4215,28.5758333 446.8325,28.8355 C446.2435,29.0951667 445.74,29.4561667 445.322,29.9185 C444.904,30.3808333 444.581,30.9286667 444.353,31.562 C444.125,32.1953333 444.011,32.8793333 444.011,33.614 C444.011,34.3106667 444.1345,34.9725 444.3815,35.5995 C444.6285,36.2265 444.973667,36.7743333 445.417,37.243 C445.860333,37.7116667 446.401833,38.0853333 447.0415,38.364 C447.681167,38.6426667 448.393667,38.782 449.179,38.782 Z M451.839,32.398 L445.284,32.398 C445.486667,31.4606667 445.898333,30.7355 446.519,30.2225 C447.139667,29.7095 447.899667,29.453 448.799,29.453 C449.673,29.453 450.391833,29.738 450.9555,30.308 C451.519167,30.878 451.813667,31.5746667 451.839,32.398 L451.839,32.398 Z M459.91,38.592 C460.214,38.592 460.4895,38.573 460.7365,38.535 C460.9835,38.497 461.214667,38.44 461.43,38.364 L461.43,38.364 L461.43,37.338 C461.24,37.4013333 461.034167,37.452 460.8125,37.49 C460.590833,37.528 460.328,37.547 460.024,37.547 C459.378,37.547 458.852333,37.4045 458.447,37.1195 C458.041667,36.8345 457.839,36.255 457.839,35.381 L457.839,35.381 L457.839,29.852 L461.43,29.852 L461.43,28.826 L457.839,28.826 L457.839,26.432 L456.699,26.432 L456.699,28.826 L454.894,28.826 L454.894,29.852 L456.699,29.852 L456.699,35.381 C456.699,36.5463333 456.990333,37.3728333 457.573,37.8605 C458.155667,38.3481667 458.934667,38.592 459.91,38.592 Z M466.936,38.782 C467.62,38.782 468.259667,38.63 468.855,38.326 C469.450333,38.022 469.950667,37.5913333 470.356,37.034 L470.356,37.034 L470.356,38.402 L471.477,38.402 L471.477,31.847 C471.477,30.7956667 471.141333,29.966 470.47,29.358 C469.798667,28.75 468.912,28.446 467.81,28.446 C466.999333,28.446 466.271,28.6106667 465.625,28.94 C464.979,29.2693333 464.447,29.7126667 464.029,30.27 L464.029,30.27 L464.903,30.935 C465.219667,30.479 465.621833,30.1211667 466.1095,29.8615 C466.597167,29.6018333 467.151333,29.472 467.772,29.472 C468.532,29.472 469.152667,29.6778333 469.634,30.0895 C470.115333,30.5011667 470.356,31.087 470.356,31.847 L470.356,31.847 L470.356,32.74 L466.955,33.31 C465.954333,33.4746667 465.184833,33.8071667 464.6465,34.3075 C464.108167,34.8078333 463.839,35.419 463.839,36.141 C463.839,36.939 464.124,37.5786667 464.694,38.06 C465.264,38.5413333 466.011333,38.782 466.936,38.782 Z M467.069,37.794 C466.423,37.794 465.913167,37.6325 465.5395,37.3095 C465.165833,36.9865 464.979,36.5906667 464.979,36.122 C464.979,35.628 465.1595,35.21 465.5205,34.868 C465.8815,34.526 466.442,34.2916667 467.202,34.165 L467.202,34.165 L470.356,33.633 L470.356,35.837 C469.988667,36.4576667 469.52,36.939 468.95,37.281 C468.38,37.623 467.753,37.794 467.069,37.794 Z M476.052,38.611 C476.318,38.611 476.539667,38.516 476.717,38.326 C476.894333,38.136 476.983,37.9143333 476.983,37.661 C476.983,37.4076667 476.894333,37.1923333 476.717,37.015 C476.539667,36.8376667 476.318,36.749 476.052,36.749 C475.798667,36.749 475.577,36.8376667 475.387,37.015 C475.197,37.1923333 475.102,37.4076667 475.102,37.661 C475.102,37.9143333 475.197,38.136 475.387,38.326 C475.577,38.516 475.798667,38.611 476.052,38.611 Z M483.857,43.152 C484.566333,43.152 485.2155,43.0696667 485.8045,42.905 C486.3935,42.7403333 486.897,42.5091667 487.315,42.2115 C487.733,41.9138333 488.059167,41.556 488.2935,41.138 C488.527833,40.72 488.645,40.2703333 488.645,39.789 C488.645,38.9656667 488.353667,38.2848333 487.771,37.7465 C487.188333,37.2081667 486.251,36.939 484.959,36.939 L484.959,36.939 L482.033,36.939 C481.678333,36.939 481.437667,36.863 481.311,36.711 C481.184333,36.559 481.121,36.3753333 481.121,36.16 C481.121,35.9573333 481.197,35.7451667 481.349,35.5235 C481.501,35.3018333 481.716333,35.1086667 481.995,34.944 C482.223,35.0326667 482.466833,35.1023333 482.7265,35.153 C482.986167,35.2036667 483.255333,35.229 483.534,35.229 C484.091333,35.229 484.594833,35.1371667 485.0445,34.9535 C485.494167,34.7698333 485.877333,34.5228333 486.194,34.2125 C486.510667,33.9021667 486.7545,33.538 486.9255,33.12 C487.0965,32.702 487.182,32.2713333 487.182,31.828 C487.182,31.4606667 487.121833,31.1028333 487.0015,30.7545 C486.881167,30.4061667 486.719667,30.0926667 486.517,29.814 L486.517,29.814 L488.911,29.814 L488.911,28.826 L485.32,28.826 C485.066667,28.6993333 484.788,28.6011667 484.484,28.5315 C484.18,28.4618333 483.863333,28.427 483.534,28.427 C482.989333,28.427 482.492167,28.5188333 482.0425,28.7025 C481.592833,28.8861667 481.209667,29.1331667 480.893,29.4435 C480.576333,29.7538333 480.3325,30.118 480.1615,30.536 C479.9905,30.954 479.905,31.3846667 479.905,31.828 C479.905,32.36 480.022167,32.8603333 480.2565,33.329 C480.490833,33.7976667 480.823333,34.1903333 481.254,34.507 C480.886667,34.7223333 480.595333,34.9883333 480.38,35.305 C480.164667,35.6216667 480.057,35.9636667 480.057,36.331 C480.057,36.597 480.117167,36.8503333 480.2375,37.091 C480.357833,37.3316667 480.538333,37.5343333 480.779,37.699 C480.272333,38.0536667 479.8955,38.4305 479.6485,38.8295 C479.4015,39.2285 479.278,39.675 479.278,40.169 C479.278,40.625 479.392,41.0398333 479.62,41.4135 C479.848,41.7871667 480.1615,42.1006667 480.5605,42.354 C480.9595,42.6073333 481.440833,42.8036667 482.0045,42.943 C482.568167,43.0823333 483.185667,43.152 483.857,43.152 Z M483.553,34.279 C482.729667,34.279 482.0995,34.032 481.6625,33.538 C481.2255,33.044 481.007,32.474 481.007,31.828 C481.007,31.1693333 481.2255,30.5961667 481.6625,30.1085 C482.0995,29.6208333 482.729667,29.377 483.553,29.377 C484.351,29.377 484.9685,29.6208333 485.4055,30.1085 C485.8425,30.5961667 486.061,31.1693333 486.061,31.828 C486.061,32.474 485.8425,33.044 485.4055,33.538 C484.9685,34.032 484.351,34.279 483.553,34.279 Z M483.838,42.183 C482.824667,42.183 481.998167,41.993 481.3585,41.613 C480.718833,41.233 480.399,40.72 480.399,40.074 C480.399,39.6433333 480.5225,39.257 480.7695,38.915 C481.0165,38.573 481.387,38.2563333 481.881,37.965 L481.881,37.965 L484.921,37.965 C485.934333,37.965 486.6215,38.1486667 486.9825,38.516 C487.3435,38.8833333 487.524,39.3266667 487.524,39.846 C487.524,40.568 487.185167,41.138 486.5075,41.556 C485.829833,41.974 484.94,42.183 483.838,42.183 Z M495.158,38.782 C495.918,38.782 496.617833,38.6395 497.2575,38.3545 C497.897167,38.0695 498.441833,37.6926667 498.8915,37.224 C499.341167,36.7553333 499.6895,36.2075 499.9365,35.5805 C500.1835,34.9535 500.307,34.298 500.307,33.614 C500.307,32.93 500.1835,32.2745 499.9365,31.6475 C499.6895,31.0205 499.341167,30.4726667 498.8915,30.004 C498.441833,29.5353333 497.897167,29.1585 497.2575,28.8735 C496.617833,28.5885 495.918,28.446 495.158,28.446 C494.398,28.446 493.701333,28.5885 493.068,28.8735 C492.434667,29.1585 491.893167,29.5353333 491.4435,30.004 C490.993833,30.4726667 490.6455,31.0205 490.3985,31.6475 C490.1515,32.2745 490.028,32.93 490.028,33.614 C490.028,34.298 490.1515,34.9535 490.3985,35.5805 C490.6455,36.2075 490.993833,36.7553333 491.4435,37.224 C491.893167,37.6926667 492.434667,38.0695 493.068,38.3545 C493.701333,38.6395 494.398,38.782 495.158,38.782 Z M495.177,37.718 C494.594333,37.718 494.059167,37.6071667 493.5715,37.3855 C493.083833,37.1638333 492.662667,36.8661667 492.308,36.4925 C491.953333,36.1188333 491.677833,35.6818333 491.4815,35.1815 C491.285167,34.6811667 491.187,34.1586667 491.187,33.614 C491.187,33.0693333 491.285167,32.5468333 491.4815,32.0465 C491.677833,31.5461667 491.953333,31.1091667 492.308,30.7355 C492.662667,30.3618333 493.083833,30.0641667 493.5715,29.8425 C494.059167,29.6208333 494.594333,29.51 495.177,29.51 C495.734333,29.51 496.256833,29.6208333 496.7445,29.8425 C497.232167,30.0641667 497.650167,30.3618333 497.9985,30.7355 C498.346833,31.1091667 498.619167,31.5461667 498.8155,32.0465 C499.011833,32.5468333 499.11,33.0693333 499.11,33.614 C499.11,34.1586667 499.011833,34.678 498.8155,35.172 C498.619167,35.666 498.346833,36.0998333 497.9985,36.4735 C497.650167,36.8471667 497.232167,37.148 496.7445,37.376 C496.256833,37.604 495.734333,37.718 495.177,37.718 Z M507.352,38.782 C508.568,38.782 509.552833,38.3925 510.3065,37.6135 C511.060167,36.8345 511.437,35.7356667 511.437,34.317 L511.437,34.317 L511.437,28.826 L510.316,28.826 L510.316,34.336 C510.316,35.4126667 510.0405,36.2455 509.4895,36.8345 C508.9385,37.4235 508.226,37.718 507.352,37.718 C506.452667,37.718 505.7275,37.4235 505.1765,36.8345 C504.6255,36.2455 504.35,35.4126667 504.35,34.336 L504.35,34.336 L504.35,28.826 L503.229,28.826 L503.229,34.317 C503.229,35.7356667 503.609,36.8345 504.369,37.6135 C505.129,38.3925 506.123333,38.782 507.352,38.782 Z M519.204,38.402 L523.099,28.826 L521.883,28.826 L518.463,37.319 L515.024,28.826 L513.827,28.826 L517.722,38.402 L519.204,38.402 Z M524.824,38.611 C525.09,38.611 525.311667,38.516 525.489,38.326 C525.666333,38.136 525.755,37.9143333 525.755,37.661 C525.755,37.4076667 525.666333,37.1923333 525.489,37.015 C525.311667,36.8376667 525.09,36.749 524.824,36.749 C524.570667,36.749 524.349,36.8376667 524.159,37.015 C523.969,37.1923333 523.874,37.4076667 523.874,37.661 C523.874,37.9143333 523.969,38.136 524.159,38.326 C524.349,38.516 524.570667,38.611 524.824,38.611 Z M531.185,38.402 L531.185,29.852 L534.776,29.852 L534.776,28.826 L531.185,28.826 L531.185,27.534 C531.185,26.7993333 531.381333,26.223 531.774,25.805 C532.166667,25.387 532.667,25.178 533.275,25.178 C533.642333,25.178 533.959,25.2508333 534.225,25.3965 C534.491,25.5421667 534.725333,25.7226667 534.928,25.938 L534.928,25.938 L535.65,25.102 C535.371333,24.836 535.0325,24.6111667 534.6335,24.4275 C534.2345,24.2438333 533.769,24.152 533.237,24.152 C532.299667,24.152 531.533333,24.4623333 530.938,25.083 C530.342667,25.7036667 530.045,26.527 530.045,27.553 L530.045,27.553 L530.045,28.826 L528.24,28.826 L528.24,29.852 L530.045,29.852 L530.045,38.402 L531.185,38.402 Z M537.774,38.402 L537.774,31.581 C538.128667,30.9983333 538.537167,30.5486667 538.9995,30.232 C539.461833,29.9153333 540.016,29.757 540.662,29.757 C540.826667,29.757 540.978667,29.7665 541.118,29.7855 C541.257333,29.8045 541.396667,29.833 541.536,29.871 L541.536,29.871 L541.536,28.75 C541.409333,28.712 541.276333,28.6835 541.137,28.6645 C540.997667,28.6455 540.864667,28.636 540.738,28.636 C540.092,28.636 539.534667,28.7721667 539.066,29.0445 C538.597333,29.3168333 538.166667,29.7 537.774,30.194 L537.774,30.194 L537.774,28.826 L536.653,28.826 L536.653,38.402 L537.774,38.402 Z" id="fdi.inclusion.beta.gouv.fr" fill="#000000" fill-rule="nonzero"></path>
        </g>
    </g>
</svg>